<svg xmlns="http://www.w3.org/2000/svg" width="156.497" height="76.446" viewBox="0 0 156.497 76.446"><g transform="translate(-416.456)"><path d="M572.28,0H457.974a.659.659,0,0,0-.673.673V40.866H416.933a.467.467,0,0,0-.477.476V75.97a.467.467,0,0,0,.477.476H550.155a.467.467,0,0,0,.477-.476V50.315H572.28a.659.659,0,0,0,.673-.674V.673A.659.659,0,0,0,572.28,0"/><path d="M457.44,65.012c0,1.133-.634,1.746-1.881,1.746h-1.815a.121.121,0,0,1-.137-.137v-3.2a.121.121,0,0,1,.137-.137h1.815c1.247,0,1.881.659,1.881,1.725m-.249-6.056c0,1.066-.634,1.587-1.837,1.587h-1.61a.12.12,0,0,1-.137-.135v-2.9a.121.121,0,0,1,.137-.136h1.61c1.224,0,1.837.5,1.837,1.587m2.086,2.857v-.045a3.518,3.518,0,0,0,1.883-3.311c0-2.449-1.588-4.1-5.034-4.1h-6.282a.216.216,0,0,0-.228.227V69.548a.214.214,0,0,0,.228.225h6.214c3.243,0,5.375-1.427,5.375-4.444a3.665,3.665,0,0,0-2.156-3.516m14.545-2.448A1.6,1.6,0,0,1,472.009,61h-2.132a.12.12,0,0,1-.137-.135V57.868a.121.121,0,0,1,.137-.137h2.132a1.6,1.6,0,0,1,1.813,1.634m4.128,10.408a.174.174,0,0,0,.158-.272l-2.834-5.874a4.6,4.6,0,0,0,2.54-4.307c0-2.9-2.018-4.968-5.556-4.968h-6.282a.215.215,0,0,0-.227.227V69.548a.214.214,0,0,0,.227.225h3.538a.213.213,0,0,0,.226-.225V64.422a.12.12,0,0,1,.137-.136h1.474l2.335,5.262a.308.308,0,0,0,.34.225Zm14.818-.225V66.621a.215.215,0,0,0-.227-.227H486.35a.119.119,0,0,1-.136-.135V63.787a.121.121,0,0,1,.136-.137h5.08a.213.213,0,0,0,.225-.226V60.566a.213.213,0,0,0-.225-.226h-5.08a.12.12,0,0,1-.136-.136V57.868a.121.121,0,0,1,.136-.137h6.191a.214.214,0,0,0,.227-.226V54.579a.215.215,0,0,0-.227-.227H482.448a.214.214,0,0,0-.226.227V69.548a.213.213,0,0,0,.226.225h10.093a.214.214,0,0,0,.227-.225m11.823-6.917-3.562-8.052a.364.364,0,0,0-.385-.227h-3.357a.214.214,0,0,0-.226.227V69.548a.213.213,0,0,0,.226.225h3.153a.214.214,0,0,0,.228-.225V61.61h.112l2.473,5.761a.506.506,0,0,0,.431.293h1.768a.484.484,0,0,0,.432-.293l2.471-5.761h.114v7.938a.213.213,0,0,0,.226.225h3.153a.213.213,0,0,0,.226-.225V54.579a.215.215,0,0,0-.226-.227h-3.312a.367.367,0,0,0-.385.227l-3.469,8.052Zm16.835-22.186V18.363a.317.317,0,0,0-.335-.335H515.87a.317.317,0,0,0-.334.335v8.063a.177.177,0,0,1-.2.2h-6.191a.177.177,0,0,1-.2-.2V18.363a.317.317,0,0,0-.335-.335h-5.218a.316.316,0,0,0-.335.335V40.445a.316.316,0,0,0,.335.335h5.218a.317.317,0,0,0,.335-.335v-8.4a.177.177,0,0,1,.2-.2h6.191a.176.176,0,0,1,.2.2v8.4a.317.317,0,0,0,.334.335h5.221a.317.317,0,0,0,.335-.335m5.9,29.1V66.621a.215.215,0,0,0-.226-.227H520.9a.119.119,0,0,1-.135-.135V63.787a.12.12,0,0,1,.135-.137h5.08a.215.215,0,0,0,.228-.226V60.566a.215.215,0,0,0-.228-.226H520.9a.119.119,0,0,1-.135-.136V57.868a.12.12,0,0,1,.135-.137H527.1a.214.214,0,0,0,.226-.226V54.579a.215.215,0,0,0-.226-.227H517a.215.215,0,0,0-.228.227V69.548a.214.214,0,0,0,.228.225H527.1a.213.213,0,0,0,.226-.225m16.019-46.869V18.363a.317.317,0,0,0-.335-.335h-14.89a.316.316,0,0,0-.335.335V40.445a.317.317,0,0,0,.335.335h5.221a.317.317,0,0,0,.334-.335v-8.2a.177.177,0,0,1,.2-.2h7.494a.316.316,0,0,0,.334-.334V27.5a.316.316,0,0,0-.334-.334h-7.494a.177.177,0,0,1-.2-.2V23.214a.177.177,0,0,1,.2-.2h9.134a.317.317,0,0,0,.335-.335m.59,46.869V54.579a.215.215,0,0,0-.227-.227h-3.175a.214.214,0,0,0-.226.227V63.31h-.091l-4.65-8.731a.4.4,0,0,0-.385-.227h-3.333a.216.216,0,0,0-.228.227V69.548a.214.214,0,0,0,.228.225h3.175a.213.213,0,0,0,.225-.225V60.839h.137l4.6,8.709a.4.4,0,0,0,.386.225H543.7a.213.213,0,0,0,.227-.225m23.13-29.136-7.193-13.149,6.792-8.8c.134-.2.067-.435-.2-.435h-5.89a.659.659,0,0,0-.568.3l-6.525,8.934v-8.9a.316.316,0,0,0-.334-.335h-5.219a.317.317,0,0,0-.335.335V40.445a.317.317,0,0,0,.335.335h5.219a.316.316,0,0,0,.334-.335V35.159l2.443-3.246,4.417,8.565a.5.5,0,0,0,.535.3h5.988a.227.227,0,0,0,.2-.368" fill="#fff"/></g></svg>