<svg width="900" height="157" viewBox="0 0 900 157" fill="none" xmlns="http://www.w3.org/2000/svg">
<path d="M561.775 19.4707V10.3037H560.237V8.77441H564.605C565.889 8.77441 566.85 8.86523 567.488 9.04688C568.127 9.22852 568.66 9.6416 569.088 10.2861C569.521 10.9248 569.738 11.6807 569.738 12.5537C569.738 13.251 569.595 13.8779 569.308 14.4346C569.026 14.9854 568.675 15.3926 568.253 15.6562C567.837 15.9199 567.365 16.0986 566.838 16.1924C566.316 16.2803 565.525 16.3242 564.465 16.3242H563.621V19.4707H565.203V21H560.237V19.4707H561.775ZM563.621 14.8477H564.676C565.877 14.8477 566.709 14.6777 567.172 14.3379C567.635 13.9922 567.866 13.3857 567.866 12.5186C567.866 11.9678 567.743 11.5107 567.497 11.1475C567.251 10.7842 566.946 10.5527 566.583 10.4531C566.22 10.3535 565.613 10.3037 564.764 10.3037H563.621V14.8477ZM572.103 19.4707V10.3037H570.424V8.77441H575.39C576.427 8.77441 577.25 8.85645 577.859 9.02051C578.469 9.17871 578.973 9.51855 579.371 10.04C579.77 10.5557 579.969 11.2002 579.969 11.9736C579.969 13.5908 579.128 14.6074 577.446 15.0234L579.608 19.4707H581.103V21H578.457L575.671 15.2871H573.948V19.4707H575.513V21H570.424V19.4707H572.103ZM573.948 13.7578H575.39C576.087 13.7578 576.6 13.7139 576.928 13.626C577.262 13.5322 577.534 13.3477 577.745 13.0723C577.956 12.791 578.062 12.416 578.062 11.9473C578.062 11.5488 577.953 11.2119 577.736 10.9365C577.525 10.6611 577.262 10.4883 576.945 10.418C576.635 10.3418 576.157 10.3037 575.513 10.3037H573.948V13.7578ZM583.15 19.4707V10.3037H581.568V8.77441H591.729V12.457H590.217V10.3037H584.996V13.9424H589.54V15.4717H584.996V19.4707H590.217V17.2471H591.729V21H581.568V19.4707H583.15ZM594.216 19.4707V10.3037H592.555V8.77441H597.283C598.59 8.77441 599.595 8.8418 600.298 8.97656C601.007 9.11133 601.692 9.41602 602.354 9.89062C603.017 10.3652 603.544 11.0186 603.937 11.8506C604.335 12.6768 604.534 13.6201 604.534 14.6807C604.534 15.8877 604.344 16.9365 603.963 17.8271C603.582 18.7178 603.081 19.3828 602.46 19.8223C601.845 20.2617 601.109 20.5693 600.254 20.7451C599.404 20.915 598.32 21 597.002 21H592.555V19.4707H594.216ZM596.062 19.4707H597.028C598.106 19.4707 598.959 19.4033 599.586 19.2686C600.219 19.1338 600.752 18.9053 601.186 18.583C601.619 18.2549 601.971 17.7627 602.24 17.1064C602.51 16.4502 602.645 15.6768 602.645 14.7861C602.645 13.7256 602.422 12.8262 601.977 12.0879C601.537 11.3496 600.972 10.8691 600.28 10.6465C599.595 10.418 598.537 10.3037 597.107 10.3037H596.062V19.4707ZM607.347 19.4707V10.3037H606.02V8.77441H610.52V10.3037H609.192V19.4707H610.52V21H606.02V19.4707H607.347ZM622.323 16.0254L623.914 16.9131C623.557 18.2725 622.833 19.3271 621.743 20.0771C620.659 20.8213 619.411 21.1934 617.999 21.1934C616.147 21.1934 614.662 20.5928 613.543 19.3916C612.424 18.1904 611.864 16.7051 611.864 14.9355C611.864 12.9961 612.427 11.4521 613.552 10.3037C614.677 9.15527 616.145 8.58105 617.955 8.58105C619.555 8.58105 620.899 9.01758 621.989 9.89062V8.77441H623.571V12.7031H621.989C621.638 11.9062 621.096 11.291 620.363 10.8574C619.631 10.418 618.86 10.1982 618.052 10.1982C616.833 10.1982 615.831 10.6377 615.046 11.5166C614.267 12.3955 613.877 13.5059 613.877 14.8477C613.877 16.2246 614.296 17.3496 615.134 18.2227C615.972 19.0957 616.965 19.5322 618.113 19.5322C619.057 19.5322 619.915 19.2305 620.688 18.627C621.462 18.0176 622.007 17.1504 622.323 16.0254ZM629.021 19.4707V10.3037H626.498V13.4238H624.986V8.77441H634.892V13.4238H633.38V10.3037H630.866V19.4707H632.457V21H627.456V19.4707H629.021ZM636.983 19.4707V10.3037H635.656V8.77441H640.156V10.3037H638.829V19.4707H640.156V21H635.656V19.4707H636.983ZM641.633 14.8301C641.633 13.0547 642.213 11.5693 643.373 10.374C644.533 9.17871 646.045 8.58105 647.908 8.58105C649.789 8.58105 651.321 9.17871 652.505 10.374C653.688 11.5693 654.28 13.0664 654.28 14.8652C654.28 16.6992 653.677 18.2139 652.47 19.4092C651.269 20.5986 649.739 21.1934 647.882 21.1934C646.698 21.1934 645.608 20.9121 644.612 20.3496C643.622 19.7812 642.878 18.9932 642.38 17.9854C641.882 16.9717 641.633 15.9199 641.633 14.8301ZM643.646 14.8389C643.646 16.1807 644.038 17.3057 644.823 18.2139C645.608 19.1221 646.64 19.5762 647.917 19.5762C649.183 19.5762 650.223 19.1133 651.037 18.1875C651.852 17.2559 652.259 16.1455 652.259 14.8564C652.259 13.5557 651.843 12.457 651.011 11.5605C650.185 10.6582 649.145 10.207 647.891 10.207C646.643 10.207 645.623 10.6494 644.832 11.5342C644.041 12.4189 643.646 13.5205 643.646 14.8389ZM657.005 19.4707V10.3037H655.256V8.77441H659.431L664.792 18.2754V10.3037H663.061V8.77441H668.079V10.3037H666.277V21.123H664.379L658.517 10.6904V19.4707H660.266V21H655.256V19.4707H657.005Z" fill="black"/>
<path d="M88.6677 67.397L86.0487 67.1V65.939H93.5277V67.1L90.9087 67.397V84.596L93.5277 84.866V86H86.0487V84.839L88.6677 84.596V67.397ZM98.0762 72.797L95.9972 72.338V71.123L99.4262 70.691H99.5072L100.02 71.123V72.311L99.9932 72.986C100.659 72.41 101.541 71.879 102.639 71.393C103.737 70.907 104.754 70.664 105.69 70.664C106.842 70.664 107.724 70.889 108.336 71.339C108.966 71.771 109.398 72.446 109.632 73.364C109.884 74.264 110.01 75.479 110.01 77.009V84.65L112.035 84.839V86H106.014V84.839L107.823 84.65V76.982C107.823 75.848 107.742 74.957 107.58 74.309C107.436 73.661 107.139 73.175 106.689 72.851C106.257 72.509 105.618 72.338 104.772 72.338C104.052 72.338 103.269 72.518 102.423 72.878C101.595 73.238 100.875 73.661 100.263 74.147V84.623L102.234 84.839V86H96.2672V84.839L98.0762 84.623V72.797ZM128.406 77.954C128.406 79.502 128.091 80.915 127.461 82.193C126.831 83.453 125.931 84.452 124.761 85.19C123.609 85.928 122.286 86.297 120.792 86.297C120.288 86.297 119.757 86.252 119.199 86.162C118.641 86.09 118.182 85.991 117.822 85.865L117.876 88.16V91.076L120.873 91.346V92.534H113.637V91.346L115.716 91.076V72.797L113.61 72.338V71.123L117.066 70.691H117.12L117.606 71.123V72.77C118.182 72.176 118.884 71.672 119.712 71.258C120.54 70.826 121.467 70.61 122.493 70.61C123.537 70.61 124.509 70.871 125.409 71.393C126.309 71.915 127.029 72.725 127.569 73.823C128.127 74.921 128.406 76.298 128.406 77.954ZM121.602 72.257C120.828 72.257 120.108 72.419 119.442 72.743C118.776 73.067 118.254 73.427 117.876 73.823V84.11C118.02 84.344 118.38 84.56 118.956 84.758C119.55 84.938 120.198 85.028 120.9 85.028C122.448 85.028 123.69 84.461 124.626 83.327C125.58 82.175 126.057 80.483 126.057 78.251C126.057 76.253 125.634 74.759 124.788 73.769C123.96 72.761 122.898 72.257 121.602 72.257ZM143.229 86.243C142.761 86.243 142.419 86.162 142.203 86C141.987 85.838 141.879 85.541 141.879 85.109V84.056C141.213 84.65 140.43 85.172 139.53 85.622C138.63 86.072 137.73 86.297 136.83 86.297C135.192 86.297 134.022 85.838 133.32 84.92C132.636 84.002 132.294 82.508 132.294 80.438V72.5L130.701 72.041V71.042L133.968 70.691H133.995L134.481 71.015V80.114C134.481 81.248 134.562 82.139 134.724 82.787C134.886 83.417 135.183 83.885 135.615 84.191C136.047 84.497 136.677 84.65 137.505 84.65C138.297 84.65 139.053 84.479 139.773 84.137C140.493 83.795 141.114 83.39 141.636 82.922V72.5L139.584 72.041V71.042L143.175 70.691H143.202L143.823 71.015V84.812H145.497L145.47 85.838C145.38 85.856 145.119 85.928 144.687 86.054C144.255 86.18 143.769 86.243 143.229 86.243ZM152.489 86.297C151.535 86.297 150.815 86.081 150.329 85.649C149.843 85.199 149.6 84.407 149.6 83.273V72.608H147.548V71.555C148.448 71.357 148.97 71.213 149.114 71.123C149.384 70.979 149.582 70.7 149.708 70.286C149.816 70.016 149.96 69.53 150.14 68.828C150.32 68.126 150.455 67.577 150.545 67.181H151.787V71.015H156.566V72.608H151.787V81.356C151.787 82.4 151.823 83.138 151.895 83.57C151.967 83.984 152.111 84.254 152.327 84.38C152.543 84.506 152.921 84.569 153.461 84.569C153.983 84.569 154.568 84.497 155.216 84.353C155.864 84.209 156.35 84.056 156.674 83.894L157.025 84.92C156.611 85.244 155.927 85.559 154.973 85.865C154.019 86.153 153.191 86.297 152.489 86.297Z" fill="black"/>
<path d="M11.8961 128.992C11.4521 129.376 10.8701 129.67 10.1501 129.874C9.44209 130.078 8.67409 130.18 7.84609 130.18C6.15409 130.18 4.76809 129.622 3.68809 128.506C2.60809 127.39 2.06809 125.974 2.06809 124.258C2.06809 123.238 2.28409 122.26 2.71609 121.324C3.14809 120.376 3.78409 119.608 4.62409 119.02C5.47609 118.42 6.52009 118.12 7.75609 118.12C8.74009 118.12 9.56809 118.252 10.2401 118.516C10.9241 118.78 11.4881 119.11 11.9321 119.506L12.2381 121.882L10.8701 122.026L10.5461 120.352C10.1981 120.112 9.80209 119.926 9.35809 119.794C8.91409 119.65 8.39809 119.578 7.81009 119.578C6.61009 119.578 5.64409 119.998 4.91209 120.838C4.18009 121.678 3.81409 122.788 3.81409 124.168C3.81409 125.596 4.19209 126.712 4.94809 127.516C5.71609 128.32 6.74209 128.722 8.02609 128.722C9.02209 128.722 9.84409 128.548 10.4921 128.2L10.7981 126.472L12.1661 126.616L11.8961 128.992ZM22.6868 125.986C22.6868 127.222 22.3028 128.23 21.5348 129.01C20.7788 129.79 19.7768 130.18 18.5288 130.18C17.3048 130.18 16.3328 129.802 15.6128 129.046C14.9048 128.29 14.5508 127.294 14.5508 126.058C14.5508 124.882 14.8928 123.874 15.5768 123.034C16.2608 122.194 17.2808 121.774 18.6368 121.774C19.9928 121.774 21.0068 122.194 21.6788 123.034C22.3508 123.862 22.6868 124.846 22.6868 125.986ZM21.0308 125.932C21.0308 125.044 20.8088 124.342 20.3648 123.826C19.9328 123.31 19.3448 123.052 18.6008 123.052C17.8208 123.052 17.2208 123.328 16.8008 123.88C16.3928 124.42 16.1888 125.116 16.1888 125.968C16.1888 126.784 16.3868 127.48 16.7828 128.056C17.1908 128.62 17.7908 128.902 18.5828 128.902C19.3628 128.902 19.9628 128.626 20.3828 128.074C20.8148 127.51 21.0308 126.796 21.0308 125.932ZM28.6921 130H24.5161V128.776H25.8121V118.858H24.4621V117.616H27.3961V128.776H28.6921V130ZM34.4964 130H30.3204V128.776H31.6164V118.858H30.2664V117.616H33.2004V128.776H34.4964V130ZM43.7386 127.624C43.6546 128.32 43.3126 128.92 42.7126 129.424C42.1126 129.928 41.2966 130.18 40.2646 130.18C39.1006 130.18 38.1586 129.832 37.4386 129.136C36.7186 128.44 36.3586 127.432 36.3586 126.112C36.3586 124.864 36.6946 123.832 37.3666 123.016C38.0386 122.2 38.9686 121.792 40.1566 121.792C41.2606 121.792 42.1186 122.134 42.7306 122.818C43.3426 123.502 43.6546 124.33 43.6666 125.302C43.6666 125.626 43.6306 125.968 43.5586 126.328H38.0146C38.0866 128.032 38.8726 128.884 40.3726 128.884C40.9966 128.884 41.4646 128.734 41.7766 128.434C42.1006 128.134 42.3166 127.774 42.4246 127.354L43.7386 127.624ZM42.0286 125.266C42.0766 124.738 41.9446 124.234 41.6326 123.754C41.3326 123.262 40.8286 123.016 40.1206 123.016C39.4606 123.016 38.9626 123.238 38.6266 123.682C38.3026 124.114 38.1046 124.642 38.0326 125.266H42.0286ZM53.038 127.21C52.942 127.918 52.624 128.59 52.084 129.226C51.556 129.862 50.71 130.18 49.546 130.18C48.418 130.18 47.506 129.832 46.81 129.136C46.126 128.428 45.784 127.42 45.784 126.112C45.784 124.9 46.126 123.88 46.81 123.052C47.494 122.212 48.448 121.792 49.672 121.792C50.176 121.792 50.662 121.852 51.13 121.972C51.598 122.092 52.042 122.302 52.462 122.602L52.786 124.69L51.508 124.834L51.22 123.484C50.764 123.22 50.242 123.088 49.654 123.088C48.898 123.088 48.34 123.364 47.98 123.916C47.62 124.456 47.44 125.158 47.44 126.022C47.44 126.922 47.632 127.624 48.016 128.128C48.4 128.632 48.964 128.884 49.708 128.884C50.824 128.884 51.49 128.236 51.706 126.94L53.038 127.21ZM61.2437 127.732C61.0157 129.364 60.1157 130.18 58.5437 130.18C57.7157 130.18 57.0677 129.958 56.5997 129.514C56.1437 129.058 55.9157 128.428 55.9157 127.624V123.16H54.6737V121.954H55.9157V119.416H57.4817V121.954H60.5597V123.16H57.4817V127.39C57.4817 128.35 57.8957 128.83 58.7237 128.83C58.9877 128.83 59.2517 128.746 59.5157 128.578C59.7797 128.398 59.9657 127.99 60.0737 127.354L61.2437 127.732ZM63.96 120.064V118.21H65.598V120.064H63.96ZM66.948 130H62.754V128.776H64.068V123.196H62.7V121.954H65.652V128.776H66.948V130ZM78.4524 130H74.2764V128.776H75.5724V125.302C75.5724 124.486 75.4164 123.91 75.1044 123.574C74.7924 123.226 74.3784 123.052 73.8624 123.052C73.1904 123.052 72.6564 123.274 72.2604 123.718C71.8644 124.162 71.6544 124.678 71.6304 125.266V128.776H72.9264V130H68.7504V128.776H70.0464V123.196H68.6964V121.954H71.6304V123.322C72.1944 122.302 73.1064 121.792 74.3664 121.792C75.1464 121.792 75.8064 122.032 76.3464 122.512C76.8864 122.992 77.1564 123.742 77.1564 124.762V128.776H78.4524V130ZM89.2182 123.196H87.9762V129.802C87.9762 131.074 87.6222 132.094 86.9142 132.862C86.2182 133.63 85.2102 134.014 83.8902 134.014C83.0502 134.014 82.2822 133.822 81.5862 133.438C80.8902 133.066 80.4162 132.46 80.1642 131.62L81.3882 130.99C81.6162 131.578 81.9642 132.01 82.4322 132.286C82.9002 132.562 83.3982 132.7 83.9262 132.7C84.6462 132.7 85.2402 132.448 85.7082 131.944C86.1762 131.44 86.4102 130.714 86.4102 129.766V128.416C86.1702 128.872 85.8282 129.262 85.3842 129.586C84.9402 129.91 84.3462 130.072 83.6022 130.072C82.6422 130.072 81.8202 129.742 81.1362 129.082C80.4642 128.41 80.1282 127.438 80.1282 126.166C80.1282 125.062 80.4282 124.06 81.0282 123.16C81.6282 122.248 82.5342 121.792 83.7462 121.792C84.9942 121.792 85.8822 122.266 86.4102 123.214V121.954H89.2182V123.196ZM86.4102 126.364V125.32C86.4102 124.648 86.1942 124.108 85.7622 123.7C85.3302 123.292 84.8082 123.088 84.1962 123.088C83.4042 123.088 82.8162 123.376 82.4322 123.952C82.0482 124.516 81.8562 125.218 81.8562 126.058C81.8562 126.982 82.0602 127.666 82.4682 128.11C82.8882 128.554 83.3982 128.776 83.9982 128.776C84.7182 128.776 85.2942 128.524 85.7262 128.02C86.1582 127.516 86.3862 126.964 86.4102 126.364ZM101.99 127.732C101.762 129.364 100.862 130.18 99.2897 130.18C98.4617 130.18 97.8137 129.958 97.3457 129.514C96.8897 129.058 96.6617 128.428 96.6617 127.624V123.16H95.4197V121.954H96.6617V119.416H98.2277V121.954H101.306V123.16H98.2277V127.39C98.2277 128.35 98.6417 128.83 99.4697 128.83C99.7337 128.83 99.9977 128.746 100.262 128.578C100.526 128.398 100.712 127.99 100.82 127.354L101.99 127.732ZM108.18 121.828C108.744 121.828 109.224 121.972 109.62 122.26L109.944 124.51L108.702 124.654L108.396 123.268C108.192 123.184 107.982 123.142 107.766 123.142C107.358 123.142 107.016 123.316 106.74 123.664C106.464 124 106.326 124.444 106.326 124.996V128.776H108.054V130H103.446V128.776H104.742V123.196H103.392V121.954H106.218V123.43C106.374 122.974 106.614 122.596 106.938 122.296C107.274 121.984 107.688 121.828 108.18 121.828ZM112.874 122.566C113.366 122.278 113.846 122.08 114.314 121.972C114.794 121.852 115.316 121.792 115.88 121.792C116.792 121.792 117.512 122.014 118.04 122.458C118.58 122.902 118.85 123.586 118.85 124.51V128.236C118.85 128.764 119.06 129.028 119.48 129.028C119.648 129.028 119.81 128.998 119.966 128.938L119.984 129.874C119.648 130.078 119.258 130.18 118.814 130.18C117.842 130.18 117.326 129.64 117.266 128.56V128.542C117.026 128.962 116.678 129.34 116.222 129.676C115.778 130.012 115.232 130.18 114.584 130.18C114.032 130.18 113.48 130.012 112.928 129.676C112.388 129.34 112.118 128.752 112.118 127.912C112.118 126.904 112.514 126.244 113.306 125.932C114.11 125.608 114.968 125.446 115.88 125.446C116.432 125.446 116.894 125.47 117.266 125.518V124.924C117.266 124.396 117.164 123.946 116.96 123.574C116.756 123.202 116.3 123.016 115.592 123.016C115.016 123.016 114.53 123.118 114.134 123.322L113.828 124.636L112.55 124.492L112.874 122.566ZM117.266 126.904V126.436C117.05 126.412 116.822 126.394 116.582 126.382C116.354 126.358 116.12 126.346 115.88 126.346C115.328 126.346 114.836 126.436 114.404 126.616C113.972 126.796 113.756 127.168 113.756 127.732C113.756 128.164 113.888 128.476 114.152 128.668C114.428 128.86 114.74 128.956 115.088 128.956C115.604 128.956 116.084 128.776 116.528 128.416C116.972 128.056 117.218 127.552 117.266 126.904ZM122.994 120.064V118.21H124.632V120.064H122.994ZM125.982 130H121.788V128.776H123.102V123.196H121.734V121.954H124.686V128.776H125.982V130ZM137.487 130H133.311V128.776H134.607V125.302C134.607 124.486 134.451 123.91 134.139 123.574C133.827 123.226 133.413 123.052 132.897 123.052C132.225 123.052 131.691 123.274 131.295 123.718C130.899 124.162 130.689 124.678 130.665 125.266V128.776H131.961V130H127.785V128.776H129.081V123.196H127.731V121.954H130.665V123.322C131.229 122.302 132.141 121.792 133.401 121.792C134.181 121.792 134.841 122.032 135.381 122.512C135.921 122.992 136.191 123.742 136.191 124.762V128.776H137.487V130ZM140.369 120.064V118.21H142.007V120.064H140.369ZM143.357 130H139.163V128.776H140.477V123.196H139.109V121.954H142.061V128.776H143.357V130ZM154.861 130H150.685V128.776H151.981V125.302C151.981 124.486 151.825 123.91 151.513 123.574C151.201 123.226 150.787 123.052 150.271 123.052C149.599 123.052 149.065 123.274 148.669 123.718C148.273 124.162 148.063 124.678 148.039 125.266V128.776H149.335V130H145.159V128.776H146.455V123.196H145.105V121.954H148.039V123.322C148.603 122.302 149.515 121.792 150.775 121.792C151.555 121.792 152.215 122.032 152.755 122.512C153.295 122.992 153.565 123.742 153.565 124.762V128.776H154.861V130ZM165.627 123.196H164.385V129.802C164.385 131.074 164.031 132.094 163.323 132.862C162.627 133.63 161.619 134.014 160.299 134.014C159.459 134.014 158.691 133.822 157.995 133.438C157.299 133.066 156.825 132.46 156.573 131.62L157.797 130.99C158.025 131.578 158.373 132.01 158.841 132.286C159.309 132.562 159.807 132.7 160.335 132.7C161.055 132.7 161.649 132.448 162.117 131.944C162.585 131.44 162.819 130.714 162.819 129.766V128.416C162.579 128.872 162.237 129.262 161.793 129.586C161.349 129.91 160.755 130.072 160.011 130.072C159.051 130.072 158.229 129.742 157.545 129.082C156.873 128.41 156.537 127.438 156.537 126.166C156.537 125.062 156.837 124.06 157.437 123.16C158.037 122.248 158.943 121.792 160.155 121.792C161.403 121.792 162.291 122.266 162.819 123.214V121.954H165.627V123.196ZM162.819 126.364V125.32C162.819 124.648 162.603 124.108 162.171 123.7C161.739 123.292 161.217 123.088 160.605 123.088C159.813 123.088 159.225 123.376 158.841 123.952C158.457 124.516 158.265 125.218 158.265 126.058C158.265 126.982 158.469 127.666 158.877 128.11C159.297 128.554 159.807 128.776 160.407 128.776C161.127 128.776 161.703 128.524 162.135 128.02C162.567 127.516 162.795 126.964 162.819 126.364ZM181.332 130H178.47V128.416C178.218 128.896 177.864 129.31 177.408 129.658C176.964 130.006 176.37 130.18 175.626 130.18C174.582 130.18 173.748 129.826 173.124 129.118C172.5 128.398 172.188 127.414 172.188 126.166C172.188 125.062 172.47 124.06 173.034 123.16C173.61 122.248 174.534 121.792 175.806 121.792C177.042 121.792 177.93 122.272 178.47 123.232V118.858H176.616V117.616H180.036V128.776H181.332V130ZM178.47 126.292V125.32C178.446 124.648 178.218 124.108 177.786 123.7C177.354 123.292 176.832 123.088 176.22 123.088C175.44 123.088 174.846 123.376 174.438 123.952C174.042 124.528 173.844 125.236 173.844 126.076C173.844 126.988 174.06 127.684 174.492 128.164C174.924 128.644 175.458 128.884 176.094 128.884C176.778 128.884 177.336 128.602 177.768 128.038C178.212 127.474 178.446 126.892 178.47 126.292ZM183.883 122.566C184.375 122.278 184.855 122.08 185.323 121.972C185.803 121.852 186.325 121.792 186.889 121.792C187.801 121.792 188.521 122.014 189.049 122.458C189.589 122.902 189.859 123.586 189.859 124.51V128.236C189.859 128.764 190.069 129.028 190.489 129.028C190.657 129.028 190.819 128.998 190.975 128.938L190.993 129.874C190.657 130.078 190.267 130.18 189.823 130.18C188.851 130.18 188.335 129.64 188.275 128.56V128.542C188.035 128.962 187.687 129.34 187.231 129.676C186.787 130.012 186.241 130.18 185.593 130.18C185.041 130.18 184.489 130.012 183.937 129.676C183.397 129.34 183.127 128.752 183.127 127.912C183.127 126.904 183.523 126.244 184.315 125.932C185.119 125.608 185.977 125.446 186.889 125.446C187.441 125.446 187.903 125.47 188.275 125.518V124.924C188.275 124.396 188.173 123.946 187.969 123.574C187.765 123.202 187.309 123.016 186.601 123.016C186.025 123.016 185.539 123.118 185.143 123.322L184.837 124.636L183.559 124.492L183.883 122.566ZM188.275 126.904V126.436C188.059 126.412 187.831 126.394 187.591 126.382C187.363 126.358 187.129 126.346 186.889 126.346C186.337 126.346 185.845 126.436 185.413 126.616C184.981 126.796 184.765 127.168 184.765 127.732C184.765 128.164 184.897 128.476 185.161 128.668C185.437 128.86 185.749 128.956 186.097 128.956C186.613 128.956 187.093 128.776 187.537 128.416C187.981 128.056 188.227 127.552 188.275 126.904ZM199.007 127.732C198.779 129.364 197.879 130.18 196.307 130.18C195.479 130.18 194.831 129.958 194.363 129.514C193.907 129.058 193.679 128.428 193.679 127.624V123.16H192.437V121.954H193.679V119.416H195.245V121.954H198.323V123.16H195.245V127.39C195.245 128.35 195.659 128.83 196.487 128.83C196.751 128.83 197.015 128.746 197.279 128.578C197.543 128.398 197.729 127.99 197.837 127.354L199.007 127.732ZM201.327 122.566C201.819 122.278 202.299 122.08 202.767 121.972C203.247 121.852 203.769 121.792 204.333 121.792C205.245 121.792 205.965 122.014 206.493 122.458C207.033 122.902 207.303 123.586 207.303 124.51V128.236C207.303 128.764 207.513 129.028 207.933 129.028C208.101 129.028 208.263 128.998 208.419 128.938L208.437 129.874C208.101 130.078 207.711 130.18 207.267 130.18C206.295 130.18 205.779 129.64 205.719 128.56V128.542C205.479 128.962 205.131 129.34 204.675 129.676C204.231 130.012 203.685 130.18 203.037 130.18C202.485 130.18 201.933 130.012 201.381 129.676C200.841 129.34 200.571 128.752 200.571 127.912C200.571 126.904 200.967 126.244 201.759 125.932C202.563 125.608 203.421 125.446 204.333 125.446C204.885 125.446 205.347 125.47 205.719 125.518V124.924C205.719 124.396 205.617 123.946 205.413 123.574C205.209 123.202 204.753 123.016 204.045 123.016C203.469 123.016 202.983 123.118 202.587 123.322L202.281 124.636L201.003 124.492L201.327 122.566ZM205.719 126.904V126.436C205.503 126.412 205.275 126.394 205.035 126.382C204.807 126.358 204.573 126.346 204.333 126.346C203.781 126.346 203.289 126.436 202.857 126.616C202.425 126.796 202.209 127.168 202.209 127.732C202.209 128.164 202.341 128.476 202.605 128.668C202.881 128.86 203.193 128.956 203.541 128.956C204.057 128.956 204.537 128.776 204.981 128.416C205.425 128.056 205.671 127.552 205.719 126.904ZM219.148 117.436C219.52 117.436 219.874 117.478 220.21 117.562C220.558 117.646 220.882 117.808 221.182 118.048L221.506 120.01L220.246 120.172L219.904 118.822C219.652 118.738 219.37 118.696 219.058 118.696C218.206 118.696 217.78 119.248 217.78 120.352V121.954H219.85V123.16H217.78V128.776H219.472V130H214.9V128.776H216.214V123.16H215.098V121.954H216.214V120.532C216.214 119.62 216.49 118.876 217.042 118.3C217.594 117.724 218.296 117.436 219.148 117.436ZM229.81 125.986C229.81 127.222 229.426 128.23 228.658 129.01C227.902 129.79 226.9 130.18 225.652 130.18C224.428 130.18 223.456 129.802 222.736 129.046C222.028 128.29 221.674 127.294 221.674 126.058C221.674 124.882 222.016 123.874 222.7 123.034C223.384 122.194 224.404 121.774 225.76 121.774C227.116 121.774 228.13 122.194 228.802 123.034C229.474 123.862 229.81 124.846 229.81 125.986ZM228.154 125.932C228.154 125.044 227.932 124.342 227.488 123.826C227.056 123.31 226.468 123.052 225.724 123.052C224.944 123.052 224.344 123.328 223.924 123.88C223.516 124.42 223.312 125.116 223.312 125.968C223.312 126.784 223.51 127.48 223.906 128.056C224.314 128.62 224.914 128.902 225.706 128.902C226.486 128.902 227.086 128.626 227.506 128.074C227.938 127.51 228.154 126.796 228.154 125.932ZM236.553 121.828C237.117 121.828 237.597 121.972 237.993 122.26L238.317 124.51L237.075 124.654L236.769 123.268C236.565 123.184 236.355 123.142 236.139 123.142C235.731 123.142 235.389 123.316 235.113 123.664C234.837 124 234.699 124.444 234.699 124.996V128.776H236.427V130H231.819V128.776H233.115V123.196H231.765V121.954H234.591V123.43C234.747 122.974 234.987 122.596 235.311 122.296C235.647 121.984 236.061 121.828 236.553 121.828ZM40.8058 152H37.9438V150.416C37.6918 150.896 37.3378 151.31 36.8818 151.658C36.4378 152.006 35.8438 152.18 35.0998 152.18C34.0558 152.18 33.2218 151.826 32.5978 151.118C31.9738 150.398 31.6618 149.414 31.6618 148.166C31.6618 147.062 31.9438 146.06 32.5078 145.16C33.0838 144.248 34.0078 143.792 35.2798 143.792C36.5158 143.792 37.4038 144.272 37.9438 145.232V140.858H36.0898V139.616H39.5098V150.776H40.8058V152ZM37.9438 148.292V147.32C37.9198 146.648 37.6918 146.108 37.2598 145.7C36.8278 145.292 36.3058 145.088 35.6938 145.088C34.9138 145.088 34.3198 145.376 33.9118 145.952C33.5158 146.528 33.3178 147.236 33.3178 148.076C33.3178 148.988 33.5338 149.684 33.9658 150.164C34.3978 150.644 34.9318 150.884 35.5678 150.884C36.2518 150.884 36.8098 150.602 37.2418 150.038C37.6858 149.474 37.9198 148.892 37.9438 148.292ZM43.7521 142.064V140.21H45.3901V142.064H43.7521ZM46.7401 152H42.5461V150.776H43.8601V145.196H42.4921V143.954H45.4441V150.776H46.7401V152ZM55.1305 150.758V145.196H51.3505V150.758H53.0425V152H48.4705V150.758H49.7845V145.196H48.6685V143.954H49.7845V142.82C49.7845 141.86 50.0965 141.086 50.7205 140.498C51.3445 139.91 52.1245 139.616 53.0605 139.616C53.6485 139.616 54.1645 139.712 54.6085 139.904C55.0525 140.096 55.4305 140.324 55.7425 140.588C56.2825 139.82 57.0625 139.436 58.0825 139.436C58.4545 139.436 58.8085 139.478 59.1445 139.562C59.4925 139.646 59.8165 139.808 60.1165 140.048L60.4405 142.01L59.1805 142.172L58.8205 140.822C58.5805 140.738 58.2985 140.696 57.9745 140.696C57.1345 140.696 56.7145 141.248 56.7145 142.352V143.954H58.7665V145.196H56.7145V150.758H58.3885V152H53.8345V150.758H55.1305ZM51.3505 142.766V143.954H55.1305V142.532C55.1305 142.256 55.1725 141.95 55.2565 141.614C54.9805 141.386 54.6805 141.2 54.3565 141.056C54.0325 140.912 53.6845 140.84 53.3125 140.84C52.7485 140.84 52.2805 141.002 51.9085 141.326C51.5365 141.65 51.3505 142.13 51.3505 142.766ZM68.0035 149.624C67.9195 150.32 67.5775 150.92 66.9775 151.424C66.3775 151.928 65.5615 152.18 64.5295 152.18C63.3655 152.18 62.4235 151.832 61.7035 151.136C60.9835 150.44 60.6235 149.432 60.6235 148.112C60.6235 146.864 60.9595 145.832 61.6315 145.016C62.3035 144.2 63.2335 143.792 64.4215 143.792C65.5255 143.792 66.3835 144.134 66.9955 144.818C67.6075 145.502 67.9195 146.33 67.9315 147.302C67.9315 147.626 67.8955 147.968 67.8235 148.328H62.2795C62.3515 150.032 63.1375 150.884 64.6375 150.884C65.2615 150.884 65.7295 150.734 66.0415 150.434C66.3655 150.134 66.5815 149.774 66.6895 149.354L68.0035 149.624ZM66.2935 147.266C66.3415 146.738 66.2095 146.234 65.8975 145.754C65.5975 145.262 65.0935 145.016 64.3855 145.016C63.7255 145.016 63.2275 145.238 62.8915 145.682C62.5675 146.114 62.3695 146.642 62.2975 147.266H66.2935ZM74.7289 143.828C75.2929 143.828 75.7729 143.972 76.1689 144.26L76.4929 146.51L75.2509 146.654L74.9449 145.268C74.7409 145.184 74.5309 145.142 74.3149 145.142C73.9069 145.142 73.5649 145.316 73.2889 145.664C73.0129 146 72.8749 146.444 72.8749 146.996V150.776H74.6029V152H69.9949V150.776H71.2909V145.196H69.9409V143.954H72.7669V145.43C72.9229 144.974 73.1629 144.596 73.4869 144.296C73.8229 143.984 74.2369 143.828 74.7289 143.828ZM85.9929 149.624C85.9089 150.32 85.5669 150.92 84.9669 151.424C84.3669 151.928 83.5509 152.18 82.5189 152.18C81.3549 152.18 80.4129 151.832 79.6929 151.136C78.9729 150.44 78.6129 149.432 78.6129 148.112C78.6129 146.864 78.9489 145.832 79.6209 145.016C80.2929 144.2 81.2229 143.792 82.4109 143.792C83.5149 143.792 84.3729 144.134 84.9849 144.818C85.5969 145.502 85.9089 146.33 85.9209 147.302C85.9209 147.626 85.8849 147.968 85.8129 148.328H80.2689C80.3409 150.032 81.1269 150.884 82.6269 150.884C83.2509 150.884 83.7189 150.734 84.0309 150.434C84.3549 150.134 84.5709 149.774 84.6789 149.354L85.9929 149.624ZM84.2829 147.266C84.3309 146.738 84.1989 146.234 83.8869 145.754C83.5869 145.262 83.0829 145.016 82.3749 145.016C81.7149 145.016 81.2169 145.238 80.8809 145.682C80.5569 146.114 80.3589 146.642 80.2869 147.266H84.2829ZM97.6863 152H93.5103V150.776H94.8063V147.302C94.8063 146.486 94.6503 145.91 94.3383 145.574C94.0263 145.226 93.6123 145.052 93.0963 145.052C92.4243 145.052 91.8903 145.274 91.4943 145.718C91.0983 146.162 90.8883 146.678 90.8643 147.266V150.776H92.1603V152H87.9843V150.776H89.2803V145.196H87.9303V143.954H90.8643V145.322C91.4283 144.302 92.3403 143.792 93.6003 143.792C94.3803 143.792 95.0403 144.032 95.5803 144.512C96.1203 144.992 96.3903 145.742 96.3903 146.762V150.776H97.6863V152ZM105.572 149.732C105.344 151.364 104.444 152.18 102.872 152.18C102.044 152.18 101.396 151.958 100.928 151.514C100.472 151.058 100.244 150.428 100.244 149.624V145.16H99.0022V143.954H100.244V141.416H101.81V143.954H104.888V145.16H101.81V149.39C101.81 150.35 102.224 150.83 103.052 150.83C103.316 150.83 103.58 150.746 103.844 150.578C104.108 150.398 104.294 149.99 104.402 149.354L105.572 149.732ZM126.699 152H122.991V150.776H123.819V147.302C123.819 146.486 123.663 145.91 123.351 145.574C123.051 145.226 122.643 145.052 122.127 145.052C121.431 145.052 120.909 145.304 120.561 145.808C120.225 146.312 120.051 146.822 120.039 147.338V150.776H121.335V152H117.627V150.776H118.455V147.302C118.455 146.474 118.299 145.892 117.987 145.556C117.687 145.22 117.285 145.052 116.781 145.052C116.097 145.052 115.581 145.298 115.233 145.79C114.885 146.282 114.705 146.786 114.693 147.302V150.776H116.187V152H111.813V150.776H113.109V145.196H111.795V143.954H114.693V145.376C114.945 144.908 115.287 144.53 115.719 144.242C116.151 143.942 116.679 143.792 117.303 143.792C117.915 143.792 118.455 143.948 118.923 144.26C119.391 144.56 119.715 145.028 119.895 145.664C120.135 145.112 120.489 144.662 120.957 144.314C121.425 143.966 121.995 143.792 122.667 143.792C123.423 143.792 124.065 144.032 124.593 144.512C125.121 144.992 125.385 145.742 125.385 146.762V150.776H126.699V152ZM136.477 147.986C136.477 149.222 136.093 150.23 135.325 151.01C134.569 151.79 133.567 152.18 132.319 152.18C131.095 152.18 130.123 151.802 129.403 151.046C128.695 150.29 128.341 149.294 128.341 148.058C128.341 146.882 128.683 145.874 129.367 145.034C130.051 144.194 131.071 143.774 132.427 143.774C133.783 143.774 134.797 144.194 135.469 145.034C136.141 145.862 136.477 146.846 136.477 147.986ZM134.821 147.932C134.821 147.044 134.599 146.342 134.155 145.826C133.723 145.31 133.135 145.052 132.391 145.052C131.611 145.052 131.011 145.328 130.591 145.88C130.183 146.42 129.979 147.116 129.979 147.968C129.979 148.784 130.177 149.48 130.573 150.056C130.981 150.62 131.581 150.902 132.373 150.902C133.153 150.902 133.753 150.626 134.173 150.074C134.605 149.51 134.821 148.796 134.821 147.932ZM146.791 145.196H145.855L142.939 152H141.769L138.709 145.196H137.773V143.954H141.607V145.196H140.401L142.435 149.912H142.543L144.307 145.196H143.209V143.954H146.791V145.196ZM155.521 149.624C155.437 150.32 155.095 150.92 154.495 151.424C153.895 151.928 153.079 152.18 152.047 152.18C150.883 152.18 149.941 151.832 149.221 151.136C148.501 150.44 148.141 149.432 148.141 148.112C148.141 146.864 148.477 145.832 149.149 145.016C149.821 144.2 150.751 143.792 151.939 143.792C153.043 143.792 153.901 144.134 154.513 144.818C155.125 145.502 155.437 146.33 155.449 147.302C155.449 147.626 155.413 147.968 155.341 148.328H149.797C149.869 150.032 150.655 150.884 152.155 150.884C152.779 150.884 153.247 150.734 153.559 150.434C153.883 150.134 154.099 149.774 154.207 149.354L155.521 149.624ZM153.811 147.266C153.859 146.738 153.727 146.234 153.415 145.754C153.115 145.262 152.611 145.016 151.903 145.016C151.243 145.016 150.745 145.238 150.409 145.682C150.085 146.114 149.887 146.642 149.815 147.266H153.811ZM172.399 152H168.691V150.776H169.519V147.302C169.519 146.486 169.363 145.91 169.051 145.574C168.751 145.226 168.343 145.052 167.827 145.052C167.131 145.052 166.609 145.304 166.261 145.808C165.925 146.312 165.751 146.822 165.739 147.338V150.776H167.035V152H163.327V150.776H164.155V147.302C164.155 146.474 163.999 145.892 163.687 145.556C163.387 145.22 162.985 145.052 162.481 145.052C161.797 145.052 161.281 145.298 160.933 145.79C160.585 146.282 160.405 146.786 160.393 147.302V150.776H161.887V152H157.513V150.776H158.809V145.196H157.495V143.954H160.393V145.376C160.645 144.908 160.987 144.53 161.419 144.242C161.851 143.942 162.379 143.792 163.003 143.792C163.615 143.792 164.155 143.948 164.623 144.26C165.091 144.56 165.415 145.028 165.595 145.664C165.835 145.112 166.189 144.662 166.657 144.314C167.125 143.966 167.695 143.792 168.367 143.792C169.123 143.792 169.765 144.032 170.293 144.512C170.821 144.992 171.085 145.742 171.085 146.762V150.776H172.399V152ZM181.439 149.624C181.355 150.32 181.013 150.92 180.413 151.424C179.813 151.928 178.997 152.18 177.965 152.18C176.801 152.18 175.859 151.832 175.139 151.136C174.419 150.44 174.059 149.432 174.059 148.112C174.059 146.864 174.395 145.832 175.067 145.016C175.739 144.2 176.669 143.792 177.857 143.792C178.961 143.792 179.819 144.134 180.431 144.818C181.043 145.502 181.355 146.33 181.367 147.302C181.367 147.626 181.331 147.968 181.259 148.328H175.715C175.787 150.032 176.573 150.884 178.073 150.884C178.697 150.884 179.165 150.734 179.477 150.434C179.801 150.134 180.017 149.774 180.125 149.354L181.439 149.624ZM179.729 147.266C179.777 146.738 179.645 146.234 179.333 145.754C179.033 145.262 178.529 145.016 177.821 145.016C177.161 145.016 176.663 145.238 176.327 145.682C176.003 146.114 175.805 146.642 175.733 147.266H179.729ZM193.132 152H188.956V150.776H190.252V147.302C190.252 146.486 190.096 145.91 189.784 145.574C189.472 145.226 189.058 145.052 188.542 145.052C187.87 145.052 187.336 145.274 186.94 145.718C186.544 146.162 186.334 146.678 186.31 147.266V150.776H187.606V152H183.43V150.776H184.726V145.196H183.376V143.954H186.31V145.322C186.874 144.302 187.786 143.792 189.046 143.792C189.826 143.792 190.486 144.032 191.026 144.512C191.566 144.992 191.836 145.742 191.836 146.762V150.776H193.132V152ZM201.018 149.732C200.79 151.364 199.89 152.18 198.318 152.18C197.49 152.18 196.842 151.958 196.374 151.514C195.918 151.058 195.69 150.428 195.69 149.624V145.16H194.448V143.954H195.69V141.416H197.256V143.954H200.334V145.16H197.256V149.39C197.256 150.35 197.67 150.83 198.498 150.83C198.762 150.83 199.026 150.746 199.29 150.578C199.554 150.398 199.74 149.99 199.848 149.354L201.018 149.732ZM209.296 149.642C209.296 150.446 208.96 151.07 208.288 151.514C207.628 151.958 206.788 152.18 205.768 152.18C204.532 152.18 203.482 151.916 202.618 151.388L202.87 149.444L204.112 149.57L204.076 150.614C204.316 150.734 204.574 150.818 204.85 150.866C205.138 150.914 205.42 150.938 205.696 150.938C206.212 150.938 206.674 150.842 207.082 150.65C207.502 150.458 207.712 150.158 207.712 149.75C207.712 149.354 207.544 149.078 207.208 148.922C206.872 148.754 206.452 148.628 205.948 148.544C205.456 148.46 204.964 148.358 204.472 148.238C203.98 148.106 203.566 147.89 203.23 147.59C202.894 147.278 202.726 146.81 202.726 146.186C202.726 145.286 203.056 144.662 203.716 144.314C204.388 143.966 205.102 143.792 205.858 143.792C206.41 143.792 206.926 143.864 207.406 144.008C207.898 144.14 208.342 144.314 208.738 144.53L208.918 146.474L207.658 146.618L207.478 145.358C206.986 145.13 206.47 145.016 205.93 145.016C205.486 145.016 205.12 145.1 204.832 145.268C204.544 145.436 204.4 145.712 204.4 146.096C204.4 146.468 204.562 146.732 204.886 146.888C205.222 147.044 205.63 147.164 206.11 147.248C206.602 147.32 207.088 147.422 207.568 147.554C208.06 147.686 208.468 147.908 208.792 148.22C209.128 148.532 209.296 149.006 209.296 149.642Z" fill="black"/>
<path d="M125 34.5C123.813 34.5 122.653 34.1481 121.667 33.4888C120.68 32.8295 119.911 31.8925 119.457 30.7961C119.003 29.6997 118.884 28.4933 119.115 27.3295C119.347 26.1656 119.918 25.0965 120.757 24.2574C121.596 23.4182 122.666 22.8468 123.829 22.6153C124.993 22.3838 126.2 22.5026 127.296 22.9567C128.392 23.4109 129.33 24.1799 129.989 25.1666C130.648 26.1533 131 27.3133 131 28.5C130.998 30.0907 130.365 31.6157 129.24 32.7405C128.116 33.8652 126.591 34.498 125 34.5ZM125 25.5C124.407 25.5 123.827 25.676 123.333 26.0056C122.84 26.3352 122.455 26.8038 122.228 27.352C122.001 27.9001 121.942 28.5033 122.058 29.0853C122.173 29.6672 122.459 30.2018 122.879 30.6213C123.298 31.0409 123.833 31.3266 124.415 31.4424C124.997 31.5581 125.6 31.4987 126.148 31.2716C126.696 31.0446 127.165 30.6601 127.494 30.1667C127.824 29.6734 128 29.0933 128 28.5C127.999 27.7046 127.683 26.942 127.12 26.3796C126.558 25.8171 125.795 25.5008 125 25.5Z" fill="black"/>
<path d="M137 39H113C112.204 39 111.441 38.6839 110.879 38.1213C110.316 37.5587 110 36.7956 110 36V22.5C110 21.7044 110.316 20.9413 110.879 20.3787C111.441 19.8161 112.204 19.5 113 19.5H117.92L118.734 17.052C118.934 16.4544 119.316 15.9346 119.827 15.5663C120.338 15.198 120.952 14.9998 121.582 15H128.418C129.048 14.9998 129.662 15.198 130.173 15.5663C130.684 15.9346 131.066 16.4544 131.265 17.052L132.08 19.5H137C137.796 19.5 138.559 19.8161 139.121 20.3787C139.684 20.9413 140 21.7044 140 22.5V36C140 36.7956 139.684 37.5587 139.121 38.1213C138.559 38.6839 137.796 39 137 39ZM113 36H137V22.5H129.92L128.42 18H121.58L120.08 22.5H113V36Z" fill="black"/>
<path d="M137 12H140V15H137V12Z" fill="black"/>
<path d="M137 6H140V9H137V6Z" fill="black"/>
<path d="M137 0H140V3H137V0Z" fill="black"/>
<path d="M131 0H134V3H131V0Z" fill="black"/>
<path d="M125 0H128V3H125V0Z" fill="black"/>
<path d="M119 0H122V3H119V0Z" fill="black"/>
<path d="M113 0H116V3H113V0Z" fill="black"/>
<path d="M107 0H110V3H107V0Z" fill="black"/>
<path d="M101 0H104V3H101V0Z" fill="black"/>
<path d="M101 6H104V9H101V6Z" fill="black"/>
<path d="M101 12H104V15H101V12Z" fill="black"/>
<path d="M101 18H104V21H101V18Z" fill="black"/>
<path d="M101 24H104V27H101V24Z" fill="black"/>
<path d="M101 30H104V33H101V30Z" fill="black"/>
<path d="M101 36H104V39H101V36Z" fill="black"/>
<path d="M762 0H789V3H762V0Z" fill="black"/>
<path d="M762 9H789V12H762V9Z" fill="black"/>
<path d="M762 18H789V21H762V18Z" fill="black"/>
<path d="M762 27H789V30H762V27Z" fill="black"/>
<path d="M795 0H798V3H795V0Z" fill="black"/>
<path d="M795 9H798V12H795V9Z" fill="black"/>
<path d="M795 18H798V21H795V18Z" fill="black"/>
<path d="M795 27H798V30H795V27Z" fill="black"/>
<path d="M742.765 77.297C741.019 77.297 739.516 76.874 738.256 76.028C737.014 75.164 736.069 73.967 735.421 72.437C734.773 70.907 734.449 69.134 734.449 67.118C734.449 65.048 734.845 63.23 735.637 61.664C736.429 60.08 737.509 58.865 738.877 58.019C740.245 57.155 741.766 56.723 743.44 56.723C745.222 56.723 746.743 57.137 748.003 57.965C749.281 58.793 750.244 59.963 750.892 61.475C751.558 62.987 751.891 64.76 751.891 66.794C751.891 68.882 751.486 70.727 750.676 72.329C749.866 73.913 748.768 75.137 747.382 76.001C745.996 76.865 744.457 77.297 742.765 77.297ZM743.197 57.992C741.271 57.992 739.741 58.775 738.607 60.341C737.473 61.889 736.906 64.148 736.906 67.118C736.906 68.846 737.149 70.385 737.635 71.735C738.121 73.085 738.832 74.138 739.768 74.894C740.704 75.65 741.82 76.028 743.116 76.028C744.376 76.028 745.474 75.686 746.41 75.002C747.346 74.3 748.075 73.256 748.597 71.87C749.119 70.484 749.38 68.792 749.38 66.794C749.38 65.048 749.137 63.518 748.651 62.204C748.165 60.872 747.454 59.837 746.518 59.099C745.6 58.361 744.493 57.992 743.197 57.992ZM766.437 77.243C765.969 77.243 765.627 77.162 765.411 77C765.195 76.838 765.087 76.541 765.087 76.109V75.056C764.421 75.65 763.638 76.172 762.738 76.622C761.838 77.072 760.938 77.297 760.038 77.297C758.4 77.297 757.23 76.838 756.528 75.92C755.844 75.002 755.502 73.508 755.502 71.438V63.5L753.909 63.041V62.042L757.176 61.691H757.203L757.689 62.015V71.114C757.689 72.248 757.77 73.139 757.932 73.787C758.094 74.417 758.391 74.885 758.823 75.191C759.255 75.497 759.885 75.65 760.713 75.65C761.505 75.65 762.261 75.479 762.981 75.137C763.701 74.795 764.322 74.39 764.844 73.922V63.5L762.792 63.041V62.042L766.383 61.691H766.41L767.031 62.015V75.812H768.705L768.678 76.838C768.588 76.856 768.327 76.928 767.895 77.054C767.463 77.18 766.977 77.243 766.437 77.243ZM775.696 77.297C774.742 77.297 774.022 77.081 773.536 76.649C773.05 76.199 772.807 75.407 772.807 74.273V63.608H770.755V62.555C771.655 62.357 772.177 62.213 772.321 62.123C772.591 61.979 772.789 61.7 772.915 61.286C773.023 61.016 773.167 60.53 773.347 59.828C773.527 59.126 773.662 58.577 773.752 58.181H774.994V62.015H779.773V63.608H774.994V72.356C774.994 73.4 775.03 74.138 775.102 74.57C775.174 74.984 775.318 75.254 775.534 75.38C775.75 75.506 776.128 75.569 776.668 75.569C777.19 75.569 777.775 75.497 778.423 75.353C779.071 75.209 779.557 75.056 779.881 74.894L780.232 75.92C779.818 76.244 779.134 76.559 778.18 76.865C777.226 77.153 776.398 77.297 775.696 77.297ZM796.385 68.954C796.385 70.502 796.07 71.915 795.44 73.193C794.81 74.453 793.91 75.452 792.74 76.19C791.588 76.928 790.265 77.297 788.771 77.297C788.267 77.297 787.736 77.252 787.178 77.162C786.62 77.09 786.161 76.991 785.801 76.865L785.855 79.16V82.076L788.852 82.346V83.534H781.616V82.346L783.695 82.076V63.797L781.589 63.338V62.123L785.045 61.691H785.099L785.585 62.123V63.77C786.161 63.176 786.863 62.672 787.691 62.258C788.519 61.826 789.446 61.61 790.472 61.61C791.516 61.61 792.488 61.871 793.388 62.393C794.288 62.915 795.008 63.725 795.548 64.823C796.106 65.921 796.385 67.298 796.385 68.954ZM789.581 63.257C788.807 63.257 788.087 63.419 787.421 63.743C786.755 64.067 786.233 64.427 785.855 64.823V75.11C785.999 75.344 786.359 75.56 786.935 75.758C787.529 75.938 788.177 76.028 788.879 76.028C790.427 76.028 791.669 75.461 792.605 74.327C793.559 73.175 794.036 71.483 794.036 69.251C794.036 67.253 793.613 65.759 792.767 64.769C791.939 63.761 790.877 63.257 789.581 63.257ZM811.208 77.243C810.74 77.243 810.398 77.162 810.182 77C809.966 76.838 809.858 76.541 809.858 76.109V75.056C809.192 75.65 808.409 76.172 807.509 76.622C806.609 77.072 805.709 77.297 804.809 77.297C803.171 77.297 802.001 76.838 801.299 75.92C800.615 75.002 800.273 73.508 800.273 71.438V63.5L798.68 63.041V62.042L801.947 61.691H801.974L802.46 62.015V71.114C802.46 72.248 802.541 73.139 802.703 73.787C802.865 74.417 803.162 74.885 803.594 75.191C804.026 75.497 804.656 75.65 805.484 75.65C806.276 75.65 807.032 75.479 807.752 75.137C808.472 74.795 809.093 74.39 809.615 73.922V63.5L807.563 63.041V62.042L811.154 61.691H811.181L811.802 62.015V75.812H813.476L813.449 76.838C813.359 76.856 813.098 76.928 812.666 77.054C812.234 77.18 811.748 77.243 811.208 77.243ZM820.468 77.297C819.514 77.297 818.794 77.081 818.308 76.649C817.822 76.199 817.579 75.407 817.579 74.273V63.608H815.527V62.555C816.427 62.357 816.949 62.213 817.093 62.123C817.363 61.979 817.561 61.7 817.687 61.286C817.795 61.016 817.939 60.53 818.119 59.828C818.299 59.126 818.434 58.577 818.524 58.181H819.766V62.015H824.545V63.608H819.766V72.356C819.766 73.4 819.802 74.138 819.874 74.57C819.946 74.984 820.09 75.254 820.306 75.38C820.522 75.506 820.9 75.569 821.44 75.569C821.962 75.569 822.547 75.497 823.195 75.353C823.843 75.209 824.329 75.056 824.653 74.894L825.004 75.92C824.59 76.244 823.906 76.559 822.952 76.865C821.998 77.153 821.17 77.297 820.468 77.297Z" fill="black"/>
<path d="M704.09 110.722H702.578V119.578H703.982V121H699.68V119.578H700.94V113.008H700.868L697.196 120.298H696.386L692.588 112.9H692.516V119.578H693.83V121H689.564V119.578H690.968V110.722H689.456V109.3H692.372L696.818 117.904H696.89L701.156 109.3H704.09V110.722ZM714.011 116.986C714.011 118.222 713.627 119.23 712.859 120.01C712.103 120.79 711.101 121.18 709.853 121.18C708.629 121.18 707.657 120.802 706.937 120.046C706.229 119.29 705.875 118.294 705.875 117.058C705.875 115.882 706.217 114.874 706.901 114.034C707.585 113.194 708.605 112.774 709.961 112.774C711.317 112.774 712.331 113.194 713.003 114.034C713.675 114.862 714.011 115.846 714.011 116.986ZM712.355 116.932C712.355 116.044 712.133 115.342 711.689 114.826C711.257 114.31 710.669 114.052 709.925 114.052C709.145 114.052 708.545 114.328 708.125 114.88C707.717 115.42 707.513 116.116 707.513 116.968C707.513 117.784 707.711 118.48 708.107 119.056C708.515 119.62 709.115 119.902 709.907 119.902C710.687 119.902 711.287 119.626 711.707 119.074C712.139 118.51 712.355 117.796 712.355 116.932ZM724.325 114.196H723.389L720.473 121H719.303L716.243 114.196H715.307V112.954H719.141V114.196H717.935L719.969 118.912H720.077L721.841 114.196H720.743V112.954H724.325V114.196ZM733.056 118.624C732.972 119.32 732.63 119.92 732.03 120.424C731.43 120.928 730.614 121.18 729.582 121.18C728.418 121.18 727.476 120.832 726.756 120.136C726.036 119.44 725.676 118.432 725.676 117.112C725.676 115.864 726.012 114.832 726.684 114.016C727.356 113.2 728.286 112.792 729.474 112.792C730.578 112.792 731.436 113.134 732.048 113.818C732.66 114.502 732.972 115.33 732.984 116.302C732.984 116.626 732.948 116.968 732.876 117.328H727.332C727.404 119.032 728.19 119.884 729.69 119.884C730.314 119.884 730.782 119.734 731.094 119.434C731.418 119.134 731.634 118.774 731.742 118.354L733.056 118.624ZM731.346 116.266C731.394 115.738 731.262 115.234 730.95 114.754C730.65 114.262 730.146 114.016 729.438 114.016C728.778 114.016 728.28 114.238 727.944 114.682C727.62 115.114 727.422 115.642 727.35 116.266H731.346ZM749.933 121H746.225V119.776H747.053V116.302C747.053 115.486 746.897 114.91 746.585 114.574C746.285 114.226 745.877 114.052 745.361 114.052C744.665 114.052 744.143 114.304 743.795 114.808C743.459 115.312 743.285 115.822 743.273 116.338V119.776H744.569V121H740.861V119.776H741.689V116.302C741.689 115.474 741.533 114.892 741.221 114.556C740.921 114.22 740.519 114.052 740.015 114.052C739.331 114.052 738.815 114.298 738.467 114.79C738.119 115.282 737.939 115.786 737.927 116.302V119.776H739.421V121H735.047V119.776H736.343V114.196H735.029V112.954H737.927V114.376C738.179 113.908 738.521 113.53 738.953 113.242C739.385 112.942 739.913 112.792 740.537 112.792C741.149 112.792 741.689 112.948 742.157 113.26C742.625 113.56 742.949 114.028 743.129 114.664C743.369 114.112 743.723 113.662 744.191 113.314C744.659 112.966 745.229 112.792 745.901 112.792C746.657 112.792 747.299 113.032 747.827 113.512C748.355 113.992 748.619 114.742 748.619 115.762V119.776H749.933V121ZM758.973 118.624C758.889 119.32 758.547 119.92 757.947 120.424C757.347 120.928 756.531 121.18 755.499 121.18C754.335 121.18 753.393 120.832 752.673 120.136C751.953 119.44 751.593 118.432 751.593 117.112C751.593 115.864 751.929 114.832 752.601 114.016C753.273 113.2 754.203 112.792 755.391 112.792C756.495 112.792 757.353 113.134 757.965 113.818C758.577 114.502 758.889 115.33 758.901 116.302C758.901 116.626 758.865 116.968 758.793 117.328H753.249C753.321 119.032 754.107 119.884 755.607 119.884C756.231 119.884 756.699 119.734 757.011 119.434C757.335 119.134 757.551 118.774 757.659 118.354L758.973 118.624ZM757.263 116.266C757.311 115.738 757.179 115.234 756.867 114.754C756.567 114.262 756.063 114.016 755.355 114.016C754.695 114.016 754.197 114.238 753.861 114.682C753.537 115.114 753.339 115.642 753.267 116.266H757.263ZM770.666 121H766.49V119.776H767.786V116.302C767.786 115.486 767.63 114.91 767.318 114.574C767.006 114.226 766.592 114.052 766.076 114.052C765.404 114.052 764.87 114.274 764.474 114.718C764.078 115.162 763.868 115.678 763.844 116.266V119.776H765.14V121H760.964V119.776H762.26V114.196H760.91V112.954H763.844V114.322C764.408 113.302 765.32 112.792 766.58 112.792C767.36 112.792 768.02 113.032 768.56 113.512C769.1 113.992 769.37 114.742 769.37 115.762V119.776H770.666V121ZM778.552 118.732C778.324 120.364 777.424 121.18 775.852 121.18C775.024 121.18 774.376 120.958 773.908 120.514C773.452 120.058 773.224 119.428 773.224 118.624V114.16H771.982V112.954H773.224V110.416H774.79V112.954H777.868V114.16H774.79V118.39C774.79 119.35 775.204 119.83 776.032 119.83C776.296 119.83 776.56 119.746 776.824 119.578C777.088 119.398 777.274 118.99 777.382 118.354L778.552 118.732ZM792.965 116.986C792.965 118.222 792.581 119.23 791.813 120.01C791.057 120.79 790.055 121.18 788.807 121.18C787.583 121.18 786.611 120.802 785.891 120.046C785.183 119.29 784.829 118.294 784.829 117.058C784.829 115.882 785.171 114.874 785.855 114.034C786.539 113.194 787.559 112.774 788.915 112.774C790.271 112.774 791.285 113.194 791.957 114.034C792.629 114.862 792.965 115.846 792.965 116.986ZM791.309 116.932C791.309 116.044 791.087 115.342 790.643 114.826C790.211 114.31 789.623 114.052 788.879 114.052C788.099 114.052 787.499 114.328 787.079 114.88C786.671 115.42 786.467 116.116 786.467 116.968C786.467 117.784 786.665 118.48 787.061 119.056C787.469 119.62 788.069 119.902 788.861 119.902C789.641 119.902 790.241 119.626 790.661 119.074C791.093 118.51 791.309 117.796 791.309 116.932ZM799.15 108.436C799.522 108.436 799.876 108.478 800.212 108.562C800.56 108.646 800.884 108.808 801.184 109.048L801.508 111.01L800.248 111.172L799.906 109.822C799.654 109.738 799.372 109.696 799.06 109.696C798.208 109.696 797.782 110.248 797.782 111.352V112.954H799.852V114.16H797.782V119.776H799.474V121H794.902V119.776H796.216V114.16H795.1V112.954H796.216V111.532C796.216 110.62 796.492 109.876 797.044 109.3C797.596 108.724 798.298 108.436 799.15 108.436ZM812.952 118.732C812.724 120.364 811.824 121.18 810.252 121.18C809.424 121.18 808.776 120.958 808.308 120.514C807.852 120.058 807.624 119.428 807.624 118.624V114.16H806.382V112.954H807.624V110.416H809.19V112.954H812.268V114.16H809.19V118.39C809.19 119.35 809.604 119.83 810.432 119.83C810.696 119.83 810.96 119.746 811.224 119.578C811.488 119.398 811.674 118.99 811.782 118.354L812.952 118.732ZM823.877 121H819.683V119.776H820.997V116.302C820.997 115.486 820.835 114.91 820.511 114.574C820.187 114.226 819.761 114.052 819.233 114.052C818.585 114.052 818.063 114.274 817.667 114.718C817.271 115.15 817.061 115.648 817.037 116.212V119.776H818.351V121H814.175V119.776H815.471V109.858H814.175V108.616H817.037V114.34C817.625 113.308 818.543 112.792 819.791 112.792C820.571 112.792 821.231 113.032 821.771 113.512C822.311 113.992 822.581 114.742 822.581 115.762V119.776H823.877V121ZM832.938 118.624C832.854 119.32 832.512 119.92 831.912 120.424C831.312 120.928 830.496 121.18 829.464 121.18C828.3 121.18 827.358 120.832 826.638 120.136C825.918 119.44 825.558 118.432 825.558 117.112C825.558 115.864 825.894 114.832 826.566 114.016C827.238 113.2 828.168 112.792 829.356 112.792C830.46 112.792 831.318 113.134 831.93 113.818C832.542 114.502 832.854 115.33 832.866 116.302C832.866 116.626 832.83 116.968 832.758 117.328H827.214C827.286 119.032 828.072 119.884 829.572 119.884C830.196 119.884 830.664 119.734 830.976 119.434C831.3 119.134 831.516 118.774 831.624 118.354L832.938 118.624ZM831.228 116.266C831.276 115.738 831.144 115.234 830.832 114.754C830.532 114.262 830.028 114.016 829.32 114.016C828.66 114.016 828.162 114.238 827.826 114.682C827.502 115.114 827.304 115.642 827.232 116.266H831.228ZM848.282 116.788C848.282 117.88 847.994 118.888 847.418 119.812C846.842 120.724 845.924 121.18 844.664 121.18C843.356 121.18 842.438 120.688 841.91 119.704C841.898 119.8 841.868 120.016 841.82 120.352C841.784 120.688 841.76 120.904 841.748 121H840.164C840.224 120.628 840.284 120.238 840.344 119.83C840.404 119.422 840.434 119.02 840.434 118.624V109.858H839.138V108.616H842.018V114.574C842.258 114.094 842.594 113.68 843.026 113.332C843.47 112.972 844.076 112.792 844.844 112.792C845.84 112.792 846.662 113.14 847.31 113.836C847.958 114.532 848.282 115.516 848.282 116.788ZM846.626 116.914C846.626 115.99 846.41 115.288 845.978 114.808C845.558 114.328 845.03 114.088 844.394 114.088C843.662 114.088 843.086 114.358 842.666 114.898C842.246 115.438 842.03 116.002 842.018 116.59V117.49C842.018 118.162 842.234 118.732 842.666 119.2C843.098 119.656 843.644 119.884 844.304 119.884C845.084 119.884 845.666 119.596 846.05 119.02C846.434 118.444 846.626 117.742 846.626 116.914ZM851.181 113.566C851.673 113.278 852.153 113.08 852.621 112.972C853.101 112.852 853.623 112.792 854.187 112.792C855.099 112.792 855.819 113.014 856.347 113.458C856.887 113.902 857.157 114.586 857.157 115.51V119.236C857.157 119.764 857.367 120.028 857.787 120.028C857.955 120.028 858.117 119.998 858.273 119.938L858.291 120.874C857.955 121.078 857.565 121.18 857.121 121.18C856.149 121.18 855.633 120.64 855.573 119.56V119.542C855.333 119.962 854.985 120.34 854.529 120.676C854.085 121.012 853.539 121.18 852.891 121.18C852.339 121.18 851.787 121.012 851.235 120.676C850.695 120.34 850.425 119.752 850.425 118.912C850.425 117.904 850.821 117.244 851.613 116.932C852.417 116.608 853.275 116.446 854.187 116.446C854.739 116.446 855.201 116.47 855.573 116.518V115.924C855.573 115.396 855.471 114.946 855.267 114.574C855.063 114.202 854.607 114.016 853.899 114.016C853.323 114.016 852.837 114.118 852.441 114.322L852.135 115.636L850.857 115.492L851.181 113.566ZM855.573 117.904V117.436C855.357 117.412 855.129 117.394 854.889 117.382C854.661 117.358 854.427 117.346 854.187 117.346C853.635 117.346 853.143 117.436 852.711 117.616C852.279 117.796 852.063 118.168 852.063 118.732C852.063 119.164 852.195 119.476 852.459 119.668C852.735 119.86 853.047 119.956 853.395 119.956C853.911 119.956 854.391 119.776 854.835 119.416C855.279 119.056 855.525 118.552 855.573 117.904ZM864.038 121H859.862V119.776H861.158V109.858H859.808V108.616H862.742V119.776H864.038V121ZM869.842 121H865.666V119.776H866.962V109.858H865.612V108.616H868.546V119.776H869.842V121Z" fill="black"/>
<path d="M335.707 34.7071C336.098 34.3166 336.098 33.6834 335.707 33.2929L329.343 26.9289C328.953 26.5384 328.319 26.5384 327.929 26.9289C327.538 27.3195 327.538 27.9526 327.929 28.3431L333.586 34L327.929 39.6569C327.538 40.0474 327.538 40.6805 327.929 41.0711C328.319 41.4616 328.953 41.4616 329.343 41.0711L335.707 34.7071ZM235 35H335V33H235V35Z" fill="black"/>
<path d="M664.707 34.7071C665.098 34.3166 665.098 33.6834 664.707 33.2929L658.343 26.9289C657.953 26.5384 657.319 26.5384 656.929 26.9289C656.538 27.3195 656.538 27.9526 656.929 28.3431L662.586 34L656.929 39.6569C656.538 40.0474 656.538 40.6805 656.929 41.0711C657.319 41.4616 657.953 41.4616 658.343 41.0711L664.707 34.7071ZM564 35H664V33H564V35Z" fill="black"/>
<path d="M432.862 65.7388L429.865 65.4418V64.2808H436.237L440.422 76.7548L441.421 80.3728L442.312 76.7548L446.47 64.2808H452.788V65.4418L449.818 65.7388L451.951 82.9108L454.408 83.1808V84.3418H447.145V83.1808L449.656 82.9378L448.414 70.6258L447.82 65.2258L446.632 68.9518L441.745 83.3698H440.665L436.075 70.4638L434.32 65.2258L433.78 70.6258L432.673 82.9378L435.319 83.1808V84.3418H428.569V83.1808L430.864 82.9378L432.862 65.7388ZM458.367 65.7388L456.099 65.4418V64.2808H463.281V65.4418L460.581 65.7388V82.9378L468.276 82.7218L469.788 78.5098L471.084 78.7258L470.085 84.3418H456.045V83.1808L458.367 82.9378V65.7388Z" fill="black"/>
<path d="M369.982 118.064H368.866V123.536C368.866 124.364 368.722 125.162 368.434 125.93C368.146 126.686 367.654 127.31 366.958 127.802C366.262 128.282 365.308 128.522 364.096 128.522C362.344 128.522 361.126 128.042 360.442 127.082C359.77 126.11 359.434 124.994 359.434 123.734V118.064H358.282V116.642H362.62V118.064H361.072V123.68C361.072 124.724 361.318 125.552 361.81 126.164C362.314 126.764 363.1 127.064 364.168 127.064C366.268 127.064 367.318 125.888 367.318 123.536V118.064H365.752V116.642H369.982V118.064ZM378.29 125.984C378.29 126.788 377.954 127.412 377.282 127.856C376.622 128.3 375.782 128.522 374.762 128.522C373.526 128.522 372.476 128.258 371.612 127.73L371.864 125.786L373.106 125.912L373.07 126.956C373.31 127.076 373.568 127.16 373.844 127.208C374.132 127.256 374.414 127.28 374.69 127.28C375.206 127.28 375.668 127.184 376.076 126.992C376.496 126.8 376.706 126.5 376.706 126.092C376.706 125.696 376.538 125.42 376.202 125.264C375.866 125.096 375.446 124.97 374.942 124.886C374.45 124.802 373.958 124.7 373.466 124.58C372.974 124.448 372.56 124.232 372.224 123.932C371.888 123.62 371.72 123.152 371.72 122.528C371.72 121.628 372.05 121.004 372.71 120.656C373.382 120.308 374.096 120.134 374.852 120.134C375.404 120.134 375.92 120.206 376.4 120.35C376.892 120.482 377.336 120.656 377.732 120.872L377.912 122.816L376.652 122.96L376.472 121.7C375.98 121.472 375.464 121.358 374.924 121.358C374.48 121.358 374.114 121.442 373.826 121.61C373.538 121.778 373.394 122.054 373.394 122.438C373.394 122.81 373.556 123.074 373.88 123.23C374.216 123.386 374.624 123.506 375.104 123.59C375.596 123.662 376.082 123.764 376.562 123.896C377.054 124.028 377.462 124.25 377.786 124.562C378.122 124.874 378.29 125.348 378.29 125.984ZM381.626 118.406V116.552H383.264V118.406H381.626ZM384.614 128.342H380.42V127.118H381.734V121.538H380.366V120.296H383.318V127.118H384.614V128.342ZM396.118 128.342H391.942V127.118H393.238V123.644C393.238 122.828 393.082 122.252 392.77 121.916C392.458 121.568 392.044 121.394 391.528 121.394C390.856 121.394 390.322 121.616 389.926 122.06C389.53 122.504 389.32 123.02 389.296 123.608V127.118H390.592V128.342H386.416V127.118H387.712V121.538H386.362V120.296H389.296V121.664C389.86 120.644 390.772 120.134 392.032 120.134C392.812 120.134 393.472 120.374 394.012 120.854C394.552 121.334 394.822 122.084 394.822 123.104V127.118H396.118V128.342ZM406.884 121.538H405.642V128.144C405.642 129.416 405.288 130.436 404.58 131.204C403.884 131.972 402.876 132.356 401.556 132.356C400.716 132.356 399.948 132.164 399.252 131.78C398.556 131.408 398.082 130.802 397.83 129.962L399.054 129.332C399.282 129.92 399.63 130.352 400.098 130.628C400.566 130.904 401.064 131.042 401.592 131.042C402.312 131.042 402.906 130.79 403.374 130.286C403.842 129.782 404.076 129.056 404.076 128.108V126.758C403.836 127.214 403.494 127.604 403.05 127.928C402.606 128.252 402.012 128.414 401.268 128.414C400.308 128.414 399.486 128.084 398.802 127.424C398.13 126.752 397.794 125.78 397.794 124.508C397.794 123.404 398.094 122.402 398.694 121.502C399.294 120.59 400.2 120.134 401.412 120.134C402.66 120.134 403.548 120.608 404.076 121.556V120.296H406.884V121.538ZM404.076 124.706V123.662C404.076 122.99 403.86 122.45 403.428 122.042C402.996 121.634 402.474 121.43 401.862 121.43C401.07 121.43 400.482 121.718 400.098 122.294C399.714 122.858 399.522 123.56 399.522 124.4C399.522 125.324 399.726 126.008 400.134 126.452C400.554 126.896 401.064 127.118 401.664 127.118C402.384 127.118 402.96 126.866 403.392 126.362C403.824 125.858 404.052 125.306 404.076 124.706ZM428.277 128.342H424.569V127.118H425.397V123.644C425.397 122.828 425.241 122.252 424.929 121.916C424.629 121.568 424.221 121.394 423.705 121.394C423.009 121.394 422.487 121.646 422.139 122.15C421.803 122.654 421.629 123.164 421.617 123.68V127.118H422.913V128.342H419.205V127.118H420.033V123.644C420.033 122.816 419.877 122.234 419.565 121.898C419.265 121.562 418.863 121.394 418.359 121.394C417.675 121.394 417.159 121.64 416.811 122.132C416.463 122.624 416.283 123.128 416.271 123.644V127.118H417.765V128.342H413.391V127.118H414.687V121.538H413.373V120.296H416.271V121.718C416.523 121.25 416.865 120.872 417.297 120.584C417.729 120.284 418.257 120.134 418.881 120.134C419.493 120.134 420.033 120.29 420.501 120.602C420.969 120.902 421.293 121.37 421.473 122.006C421.713 121.454 422.067 121.004 422.535 120.656C423.003 120.308 423.573 120.134 424.245 120.134C425.001 120.134 425.643 120.374 426.171 120.854C426.699 121.334 426.963 122.084 426.963 123.104V127.118H428.277V128.342ZM430.747 120.908C431.239 120.62 431.719 120.422 432.187 120.314C432.667 120.194 433.189 120.134 433.753 120.134C434.665 120.134 435.385 120.356 435.913 120.8C436.453 121.244 436.723 121.928 436.723 122.852V126.578C436.723 127.106 436.933 127.37 437.353 127.37C437.521 127.37 437.683 127.34 437.839 127.28L437.857 128.216C437.521 128.42 437.131 128.522 436.687 128.522C435.715 128.522 435.199 127.982 435.139 126.902V126.884C434.899 127.304 434.551 127.682 434.095 128.018C433.651 128.354 433.105 128.522 432.457 128.522C431.905 128.522 431.353 128.354 430.801 128.018C430.261 127.682 429.991 127.094 429.991 126.254C429.991 125.246 430.387 124.586 431.179 124.274C431.983 123.95 432.841 123.788 433.753 123.788C434.305 123.788 434.767 123.812 435.139 123.86V123.266C435.139 122.738 435.037 122.288 434.833 121.916C434.629 121.544 434.173 121.358 433.465 121.358C432.889 121.358 432.403 121.46 432.007 121.664L431.701 122.978L430.423 122.834L430.747 120.908ZM435.139 125.246V124.778C434.923 124.754 434.695 124.736 434.455 124.724C434.227 124.7 433.993 124.688 433.753 124.688C433.201 124.688 432.709 124.778 432.277 124.958C431.845 125.138 431.629 125.51 431.629 126.074C431.629 126.506 431.761 126.818 432.025 127.01C432.301 127.202 432.613 127.298 432.961 127.298C433.477 127.298 433.957 127.118 434.401 126.758C434.845 126.398 435.091 125.894 435.139 125.246ZM445.871 126.074C445.643 127.706 444.743 128.522 443.171 128.522C442.343 128.522 441.695 128.3 441.227 127.856C440.771 127.4 440.543 126.77 440.543 125.966V121.502H439.301V120.296H440.543V117.758H442.109V120.296H445.187V121.502H442.109V125.732C442.109 126.692 442.523 127.172 443.351 127.172C443.615 127.172 443.879 127.088 444.143 126.92C444.407 126.74 444.593 126.332 444.701 125.696L445.871 126.074ZM456.796 128.342H452.602V127.118H453.916V123.644C453.916 122.828 453.754 122.252 453.43 121.916C453.106 121.568 452.68 121.394 452.152 121.394C451.504 121.394 450.982 121.616 450.586 122.06C450.19 122.492 449.98 122.99 449.956 123.554V127.118H451.27V128.342H447.094V127.118H448.39V117.2H447.094V115.958H449.956V121.682C450.544 120.65 451.462 120.134 452.71 120.134C453.49 120.134 454.15 120.374 454.69 120.854C455.23 121.334 455.5 122.084 455.5 123.104V127.118H456.796V128.342ZM469.472 126.074C469.244 127.706 468.344 128.522 466.772 128.522C465.944 128.522 465.296 128.3 464.828 127.856C464.372 127.4 464.144 126.77 464.144 125.966V121.502H462.902V120.296H464.144V117.758H465.71V120.296H468.788V121.502H465.71V125.732C465.71 126.692 466.124 127.172 466.952 127.172C467.216 127.172 467.48 127.088 467.744 126.92C468.008 126.74 468.194 126.332 468.302 125.696L469.472 126.074ZM479.1 124.328C479.1 125.564 478.716 126.572 477.948 127.352C477.192 128.132 476.19 128.522 474.942 128.522C473.718 128.522 472.746 128.144 472.026 127.388C471.318 126.632 470.964 125.636 470.964 124.4C470.964 123.224 471.306 122.216 471.99 121.376C472.674 120.536 473.694 120.116 475.05 120.116C476.406 120.116 477.42 120.536 478.092 121.376C478.764 122.204 479.1 123.188 479.1 124.328ZM477.444 124.274C477.444 123.386 477.222 122.684 476.778 122.168C476.346 121.652 475.758 121.394 475.014 121.394C474.234 121.394 473.634 121.67 473.214 122.222C472.806 122.762 472.602 123.458 472.602 124.31C472.602 125.126 472.8 125.822 473.196 126.398C473.604 126.962 474.204 127.244 474.996 127.244C475.776 127.244 476.376 126.968 476.796 126.416C477.228 125.852 477.444 125.138 477.444 124.274ZM489.89 128.342H485.714V127.118H487.01V117.2H485.66V115.958H488.594V127.118H489.89V128.342ZM499.132 125.966C499.048 126.662 498.706 127.262 498.106 127.766C497.506 128.27 496.69 128.522 495.658 128.522C494.494 128.522 493.552 128.174 492.832 127.478C492.112 126.782 491.752 125.774 491.752 124.454C491.752 123.206 492.088 122.174 492.76 121.358C493.432 120.542 494.362 120.134 495.55 120.134C496.654 120.134 497.512 120.476 498.124 121.16C498.736 121.844 499.048 122.672 499.06 123.644C499.06 123.968 499.024 124.31 498.952 124.67H493.408C493.48 126.374 494.266 127.226 495.766 127.226C496.39 127.226 496.858 127.076 497.17 126.776C497.494 126.476 497.71 126.116 497.818 125.696L499.132 125.966ZM497.422 123.608C497.47 123.08 497.338 122.576 497.026 122.096C496.726 121.604 496.222 121.358 495.514 121.358C494.854 121.358 494.356 121.58 494.02 122.024C493.696 122.456 493.498 122.984 493.426 123.608H497.422ZM507.388 126.074C507.16 127.706 506.26 128.522 504.688 128.522C503.86 128.522 503.212 128.3 502.744 127.856C502.288 127.4 502.06 126.77 502.06 125.966V121.502H500.818V120.296H502.06V117.758H503.626V120.296H506.704V121.502H503.626V125.732C503.626 126.692 504.04 127.172 504.868 127.172C505.132 127.172 505.396 127.088 505.66 126.92C505.924 126.74 506.11 126.332 506.218 125.696L507.388 126.074ZM519.893 126.074C519.665 127.706 518.765 128.522 517.193 128.522C516.365 128.522 515.717 128.3 515.249 127.856C514.793 127.4 514.565 126.77 514.565 125.966V121.502H513.323V120.296H514.565V117.758H516.131V120.296H519.209V121.502H516.131V125.732C516.131 126.692 516.545 127.172 517.373 127.172C517.637 127.172 517.901 127.088 518.165 126.92C518.429 126.74 518.615 126.332 518.723 125.696L519.893 126.074ZM530.817 128.342H526.623V127.118H527.937V123.644C527.937 122.828 527.775 122.252 527.451 121.916C527.127 121.568 526.701 121.394 526.173 121.394C525.525 121.394 525.003 121.616 524.607 122.06C524.211 122.492 524.001 122.99 523.977 123.554V127.118H525.291V128.342H521.115V127.118H522.411V117.2H521.115V115.958H523.977V121.682C524.565 120.65 525.483 120.134 526.731 120.134C527.511 120.134 528.171 120.374 528.711 120.854C529.251 121.334 529.521 122.084 529.521 123.104V127.118H530.817V128.342ZM539.878 125.966C539.794 126.662 539.452 127.262 538.852 127.766C538.252 128.27 537.436 128.522 536.404 128.522C535.24 128.522 534.298 128.174 533.578 127.478C532.858 126.782 532.498 125.774 532.498 124.454C532.498 123.206 532.834 122.174 533.506 121.358C534.178 120.542 535.108 120.134 536.296 120.134C537.4 120.134 538.258 120.476 538.87 121.16C539.482 121.844 539.794 122.672 539.806 123.644C539.806 123.968 539.77 124.31 539.698 124.67H534.154C534.226 126.374 535.012 127.226 536.512 127.226C537.136 127.226 537.604 127.076 537.916 126.776C538.24 126.476 538.456 126.116 538.564 125.696L539.878 125.966ZM538.168 123.608C538.216 123.08 538.084 122.576 537.772 122.096C537.472 121.604 536.968 121.358 536.26 121.358C535.6 121.358 535.102 121.58 534.766 122.024C534.442 122.456 534.244 122.984 534.172 123.608H538.168ZM352.654 147.984C352.654 148.788 352.318 149.412 351.646 149.856C350.986 150.3 350.146 150.522 349.126 150.522C347.89 150.522 346.84 150.258 345.976 149.73L346.228 147.786L347.47 147.912L347.434 148.956C347.674 149.076 347.932 149.16 348.208 149.208C348.496 149.256 348.778 149.28 349.054 149.28C349.57 149.28 350.032 149.184 350.44 148.992C350.86 148.8 351.07 148.5 351.07 148.092C351.07 147.696 350.902 147.42 350.566 147.264C350.23 147.096 349.81 146.97 349.306 146.886C348.814 146.802 348.322 146.7 347.83 146.58C347.338 146.448 346.924 146.232 346.588 145.932C346.252 145.62 346.084 145.152 346.084 144.528C346.084 143.628 346.414 143.004 347.074 142.656C347.746 142.308 348.46 142.134 349.216 142.134C349.768 142.134 350.284 142.206 350.764 142.35C351.256 142.482 351.7 142.656 352.096 142.872L352.276 144.816L351.016 144.96L350.836 143.7C350.344 143.472 349.828 143.358 349.288 143.358C348.844 143.358 348.478 143.442 348.19 143.61C347.902 143.778 347.758 144.054 347.758 144.438C347.758 144.81 347.92 145.074 348.244 145.23C348.58 145.386 348.988 145.506 349.468 145.59C349.96 145.662 350.446 145.764 350.926 145.896C351.418 146.028 351.826 146.25 352.15 146.562C352.486 146.874 352.654 147.348 352.654 147.984ZM363.263 143.538H362.363L359.591 150.342L358.601 152.916H359.879V154.176H355.703V152.916H357.125L358.061 150.36L355.163 143.538H354.245V142.296H358.079V143.538H356.855L358.925 148.434H359.033L360.815 143.538H359.681V142.296H363.263V143.538ZM371.434 147.984C371.434 148.788 371.098 149.412 370.426 149.856C369.766 150.3 368.926 150.522 367.906 150.522C366.67 150.522 365.62 150.258 364.756 149.73L365.008 147.786L366.25 147.912L366.214 148.956C366.454 149.076 366.712 149.16 366.988 149.208C367.276 149.256 367.558 149.28 367.834 149.28C368.35 149.28 368.812 149.184 369.22 148.992C369.64 148.8 369.85 148.5 369.85 148.092C369.85 147.696 369.682 147.42 369.346 147.264C369.01 147.096 368.59 146.97 368.086 146.886C367.594 146.802 367.102 146.7 366.61 146.58C366.118 146.448 365.704 146.232 365.368 145.932C365.032 145.62 364.864 145.152 364.864 144.528C364.864 143.628 365.194 143.004 365.854 142.656C366.526 142.308 367.24 142.134 367.996 142.134C368.548 142.134 369.064 142.206 369.544 142.35C370.036 142.482 370.48 142.656 370.876 142.872L371.056 144.816L369.796 144.96L369.616 143.7C369.124 143.472 368.608 143.358 368.068 143.358C367.624 143.358 367.258 143.442 366.97 143.61C366.682 143.778 366.538 144.054 366.538 144.438C366.538 144.81 366.7 145.074 367.024 145.23C367.36 145.386 367.768 145.506 368.248 145.59C368.74 145.662 369.226 145.764 369.706 145.896C370.198 146.028 370.606 146.25 370.93 146.562C371.266 146.874 371.434 147.348 371.434 147.984ZM379.774 148.074C379.546 149.706 378.646 150.522 377.074 150.522C376.246 150.522 375.598 150.3 375.13 149.856C374.674 149.4 374.446 148.77 374.446 147.966V143.502H373.204V142.296H374.446V139.758H376.012V142.296H379.09V143.502H376.012V147.732C376.012 148.692 376.426 149.172 377.254 149.172C377.518 149.172 377.782 149.088 378.046 148.92C378.31 148.74 378.496 148.332 378.604 147.696L379.774 148.074ZM388.664 147.966C388.58 148.662 388.238 149.262 387.638 149.766C387.038 150.27 386.222 150.522 385.19 150.522C384.026 150.522 383.084 150.174 382.364 149.478C381.644 148.782 381.284 147.774 381.284 146.454C381.284 145.206 381.62 144.174 382.292 143.358C382.964 142.542 383.894 142.134 385.082 142.134C386.186 142.134 387.044 142.476 387.656 143.16C388.268 143.844 388.58 144.672 388.592 145.644C388.592 145.968 388.556 146.31 388.484 146.67H382.94C383.012 148.374 383.798 149.226 385.298 149.226C385.922 149.226 386.39 149.076 386.702 148.776C387.026 148.476 387.242 148.116 387.35 147.696L388.664 147.966ZM386.954 145.608C387.002 145.08 386.87 144.576 386.558 144.096C386.258 143.604 385.754 143.358 385.046 143.358C384.386 143.358 383.888 143.58 383.552 144.024C383.228 144.456 383.03 144.984 382.958 145.608H386.954ZM405.542 150.342H401.834V149.118H402.662V145.644C402.662 144.828 402.506 144.252 402.194 143.916C401.894 143.568 401.486 143.394 400.97 143.394C400.274 143.394 399.752 143.646 399.404 144.15C399.068 144.654 398.894 145.164 398.882 145.68V149.118H400.178V150.342H396.47V149.118H397.298V145.644C397.298 144.816 397.142 144.234 396.83 143.898C396.53 143.562 396.128 143.394 395.624 143.394C394.94 143.394 394.424 143.64 394.076 144.132C393.728 144.624 393.548 145.128 393.536 145.644V149.118H395.03V150.342H390.656V149.118H391.952V143.538H390.638V142.296H393.536V143.718C393.788 143.25 394.13 142.872 394.562 142.584C394.994 142.284 395.522 142.134 396.146 142.134C396.758 142.134 397.298 142.29 397.766 142.602C398.234 142.902 398.558 143.37 398.738 144.006C398.978 143.454 399.332 143.004 399.8 142.656C400.268 142.308 400.838 142.134 401.51 142.134C402.266 142.134 402.908 142.374 403.436 142.854C403.964 143.334 404.228 144.084 404.228 145.104V149.118H405.542V150.342ZM415.928 150.342H411.752V149.118H413.048V139.2H411.698V137.958H414.632V149.118H415.928V150.342ZM425.171 147.966C425.087 148.662 424.745 149.262 424.145 149.766C423.545 150.27 422.729 150.522 421.697 150.522C420.533 150.522 419.591 150.174 418.871 149.478C418.151 148.782 417.791 147.774 417.791 146.454C417.791 145.206 418.127 144.174 418.799 143.358C419.471 142.542 420.401 142.134 421.589 142.134C422.693 142.134 423.551 142.476 424.163 143.16C424.775 143.844 425.087 144.672 425.099 145.644C425.099 145.968 425.063 146.31 424.991 146.67H419.447C419.519 148.374 420.305 149.226 421.805 149.226C422.429 149.226 422.897 149.076 423.209 148.776C423.533 148.476 423.749 148.116 423.857 147.696L425.171 147.966ZM423.461 145.608C423.509 145.08 423.377 144.576 423.065 144.096C422.765 143.604 422.261 143.358 421.553 143.358C420.893 143.358 420.395 143.58 420.059 144.024C419.735 144.456 419.537 144.984 419.465 145.608H423.461ZM428.026 142.908C428.518 142.62 428.998 142.422 429.466 142.314C429.946 142.194 430.468 142.134 431.032 142.134C431.944 142.134 432.664 142.356 433.192 142.8C433.732 143.244 434.002 143.928 434.002 144.852V148.578C434.002 149.106 434.212 149.37 434.632 149.37C434.8 149.37 434.962 149.34 435.118 149.28L435.136 150.216C434.8 150.42 434.41 150.522 433.966 150.522C432.994 150.522 432.478 149.982 432.418 148.902V148.884C432.178 149.304 431.83 149.682 431.374 150.018C430.93 150.354 430.384 150.522 429.736 150.522C429.184 150.522 428.632 150.354 428.08 150.018C427.54 149.682 427.27 149.094 427.27 148.254C427.27 147.246 427.666 146.586 428.458 146.274C429.262 145.95 430.12 145.788 431.032 145.788C431.584 145.788 432.046 145.812 432.418 145.86V145.266C432.418 144.738 432.316 144.288 432.112 143.916C431.908 143.544 431.452 143.358 430.744 143.358C430.168 143.358 429.682 143.46 429.286 143.664L428.98 144.978L427.702 144.834L428.026 142.908ZM432.418 147.246V146.778C432.202 146.754 431.974 146.736 431.734 146.724C431.506 146.7 431.272 146.688 431.032 146.688C430.48 146.688 429.988 146.778 429.556 146.958C429.124 147.138 428.908 147.51 428.908 148.074C428.908 148.506 429.04 148.818 429.304 149.01C429.58 149.202 429.892 149.298 430.24 149.298C430.756 149.298 431.236 149.118 431.68 148.758C432.124 148.398 432.37 147.894 432.418 147.246ZM441.62 142.17C442.184 142.17 442.664 142.314 443.06 142.602L443.384 144.852L442.142 144.996L441.836 143.61C441.632 143.526 441.422 143.484 441.206 143.484C440.798 143.484 440.456 143.658 440.18 144.006C439.904 144.342 439.766 144.786 439.766 145.338V149.118H441.494V150.342H436.886V149.118H438.182V143.538H436.832V142.296H439.658V143.772C439.814 143.316 440.054 142.938 440.378 142.638C440.714 142.326 441.128 142.17 441.62 142.17ZM455.152 150.342H450.976V149.118H452.272V145.644C452.272 144.828 452.116 144.252 451.804 143.916C451.492 143.568 451.078 143.394 450.562 143.394C449.89 143.394 449.356 143.616 448.96 144.06C448.564 144.504 448.354 145.02 448.33 145.608V149.118H449.626V150.342H445.45V149.118H446.746V143.538H445.396V142.296H448.33V143.664C448.894 142.644 449.806 142.134 451.066 142.134C451.846 142.134 452.506 142.374 453.046 142.854C453.586 143.334 453.856 144.084 453.856 145.104V149.118H455.152V150.342ZM469.731 146.328C469.731 147.564 469.347 148.572 468.579 149.352C467.823 150.132 466.821 150.522 465.573 150.522C464.349 150.522 463.377 150.144 462.657 149.388C461.949 148.632 461.595 147.636 461.595 146.4C461.595 145.224 461.937 144.216 462.621 143.376C463.305 142.536 464.325 142.116 465.681 142.116C467.037 142.116 468.051 142.536 468.723 143.376C469.395 144.204 469.731 145.188 469.731 146.328ZM468.075 146.274C468.075 145.386 467.853 144.684 467.409 144.168C466.977 143.652 466.389 143.394 465.645 143.394C464.865 143.394 464.265 143.67 463.845 144.222C463.437 144.762 463.233 145.458 463.233 146.31C463.233 147.126 463.431 147.822 463.827 148.398C464.235 148.962 464.835 149.244 465.627 149.244C466.407 149.244 467.007 148.968 467.427 148.416C467.859 147.852 468.075 147.138 468.075 146.274ZM481.442 150.342H477.266V149.118H478.562V145.644C478.562 144.828 478.406 144.252 478.094 143.916C477.782 143.568 477.368 143.394 476.852 143.394C476.18 143.394 475.646 143.616 475.25 144.06C474.854 144.504 474.644 145.02 474.62 145.608V149.118H475.916V150.342H471.74V149.118H473.036V143.538H471.686V142.296H474.62V143.664C475.184 142.644 476.096 142.134 477.356 142.134C478.136 142.134 478.796 142.374 479.336 142.854C479.876 143.334 480.146 144.084 480.146 145.104V149.118H481.442V150.342ZM489.109 140.406V138.552H490.747V140.406H489.109ZM492.097 150.342H487.903V149.118H489.217V143.538H487.849V142.296H490.801V149.118H492.097V150.342ZM500.163 148.074C499.935 149.706 499.035 150.522 497.463 150.522C496.635 150.522 495.987 150.3 495.519 149.856C495.063 149.4 494.835 148.77 494.835 147.966V143.502H493.593V142.296H494.835V139.758H496.401V142.296H499.479V143.502H496.401V147.732C496.401 148.692 496.815 149.172 497.643 149.172C497.907 149.172 498.171 149.088 498.435 148.92C498.699 148.74 498.885 148.332 498.993 147.696L500.163 148.074ZM501.482 141.63L502.472 137.652H504.002L503.012 141.63H501.482ZM512.33 147.984C512.33 148.788 511.994 149.412 511.322 149.856C510.662 150.3 509.822 150.522 508.802 150.522C507.566 150.522 506.516 150.258 505.652 149.73L505.904 147.786L507.146 147.912L507.11 148.956C507.35 149.076 507.608 149.16 507.884 149.208C508.172 149.256 508.454 149.28 508.73 149.28C509.246 149.28 509.708 149.184 510.116 148.992C510.536 148.8 510.746 148.5 510.746 148.092C510.746 147.696 510.578 147.42 510.242 147.264C509.906 147.096 509.486 146.97 508.982 146.886C508.49 146.802 507.998 146.7 507.506 146.58C507.014 146.448 506.6 146.232 506.264 145.932C505.928 145.62 505.76 145.152 505.76 144.528C505.76 143.628 506.09 143.004 506.75 142.656C507.422 142.308 508.136 142.134 508.892 142.134C509.444 142.134 509.96 142.206 510.44 142.35C510.932 142.482 511.376 142.656 511.772 142.872L511.952 144.816L510.692 144.96L510.512 143.7C510.02 143.472 509.504 143.358 508.964 143.358C508.52 143.358 508.154 143.442 507.866 143.61C507.578 143.778 507.434 144.054 507.434 144.438C507.434 144.81 507.596 145.074 507.92 145.23C508.256 145.386 508.664 145.506 509.144 145.59C509.636 145.662 510.122 145.764 510.602 145.896C511.094 146.028 511.502 146.25 511.826 146.562C512.162 146.874 512.33 147.348 512.33 147.984ZM527.363 146.328C527.363 147.564 526.979 148.572 526.211 149.352C525.455 150.132 524.453 150.522 523.205 150.522C521.981 150.522 521.009 150.144 520.289 149.388C519.581 148.632 519.227 147.636 519.227 146.4C519.227 145.224 519.569 144.216 520.253 143.376C520.937 142.536 521.957 142.116 523.313 142.116C524.669 142.116 525.683 142.536 526.355 143.376C527.027 144.204 527.363 145.188 527.363 146.328ZM525.707 146.274C525.707 145.386 525.485 144.684 525.041 144.168C524.609 143.652 524.021 143.394 523.277 143.394C522.497 143.394 521.897 143.67 521.477 144.222C521.069 144.762 520.865 145.458 520.865 146.31C520.865 147.126 521.063 147.822 521.459 148.398C521.867 148.962 522.467 149.244 523.259 149.244C524.039 149.244 524.639 148.968 525.059 148.416C525.491 147.852 525.707 147.138 525.707 146.274ZM542.228 143.538H541.364L539.042 150.342H537.854L535.514 144.6H535.424L533.156 150.342H532.022L529.628 143.538H528.8V142.296H532.724V143.538H531.32L532.796 148.038H532.886L535.118 142.296H536.126L538.538 148.02H538.646L539.888 143.538H538.538V142.296H542.228V143.538ZM553.527 150.342H549.351V149.118H550.647V145.644C550.647 144.828 550.491 144.252 550.179 143.916C549.867 143.568 549.453 143.394 548.937 143.394C548.265 143.394 547.731 143.616 547.335 144.06C546.939 144.504 546.729 145.02 546.705 145.608V149.118H548.001V150.342H543.825V149.118H545.121V143.538H543.771V142.296H546.705V143.664C547.269 142.644 548.181 142.134 549.441 142.134C550.221 142.134 550.881 142.374 551.421 142.854C551.961 143.334 552.231 144.084 552.231 145.104V149.118H553.527V150.342Z" fill="black"/>
<path d="M449.363 21.5797C449.164 21.5786 448.968 21.533 448.789 21.4464L428.789 11.9931C428.56 11.8854 428.366 11.7148 428.231 11.5011C428.095 11.2874 428.023 11.0395 428.023 10.7864C428.023 10.5333 428.095 10.2854 428.231 10.0717C428.366 9.85807 428.56 9.68742 428.789 9.57974L448.789 0.126409C448.966 0.0431594 449.16 0 449.356 0C449.552 0 449.745 0.0431594 449.923 0.126409L469.923 9.57974C470.152 9.68742 470.345 9.85807 470.481 10.0717C470.617 10.2854 470.689 10.5333 470.689 10.7864C470.689 11.0395 470.617 11.2874 470.481 11.5011C470.345 11.7148 470.152 11.8854 469.923 11.9931L449.923 21.4464C449.748 21.5311 449.557 21.5766 449.363 21.5797ZM432.483 10.7931L449.363 18.7931L466.243 10.7931L449.363 2.81974L432.483 10.7931Z" fill="black"/>
<path d="M449.363 29.4604C449.164 29.4592 448.968 29.4136 448.789 29.327L428.789 19.9137C428.627 19.8414 428.482 19.7376 428.361 19.6083C428.239 19.479 428.145 19.3269 428.083 19.1608C428.022 18.9947 427.994 18.8179 428.001 18.6409C428.009 18.4639 428.051 18.2901 428.126 18.1297C428.202 17.9693 428.308 17.8255 428.44 17.7068C428.571 17.588 428.725 17.4967 428.892 17.4381C429.06 17.3795 429.237 17.3548 429.414 17.3655C429.591 17.3762 429.764 17.4221 429.923 17.5004L449.363 26.6604L468.789 17.4737C468.949 17.3984 469.123 17.3554 469.3 17.3472C469.477 17.3389 469.653 17.3656 469.82 17.4256C469.986 17.4857 470.139 17.5779 470.27 17.6971C470.401 17.8163 470.507 17.9602 470.583 18.1204C470.658 18.2806 470.701 18.4541 470.709 18.6309C470.717 18.8077 470.691 18.9844 470.631 19.151C470.571 19.3175 470.478 19.4706 470.359 19.6014C470.24 19.7323 470.096 19.8384 469.936 19.9137L449.936 29.367C449.754 29.4399 449.558 29.4718 449.363 29.4604Z" fill="black"/>
<path d="M449.363 37.3397C449.164 37.3385 448.968 37.293 448.789 37.2064L428.789 27.753C428.476 27.5987 428.236 27.3275 428.12 26.9978C428.005 26.6682 428.023 26.3064 428.172 25.9902C428.32 25.674 428.587 25.4287 428.914 25.3071C429.242 25.1855 429.604 25.1972 429.923 25.3397L449.363 34.5797L468.789 25.393C468.948 25.3147 469.121 25.2689 469.298 25.2582C469.475 25.2475 469.652 25.2722 469.819 25.3308C469.987 25.3893 470.14 25.4807 470.272 25.5994C470.403 25.7182 470.51 25.8619 470.585 26.0223C470.661 26.1827 470.703 26.3565 470.711 26.5336C470.718 26.7106 470.69 26.8873 470.628 27.0534C470.567 27.2195 470.472 27.3717 470.351 27.501C470.23 27.6302 470.084 27.7341 469.923 27.8064L449.936 37.2464C449.754 37.3192 449.558 37.3511 449.363 37.3397Z" fill="black"/>
</svg>
