<svg width="195" height="100" viewBox="0 0 195 100" fill="none" xmlns="http://www.w3.org/2000/svg">
<rect y="5" width="195" height="40" fill="black"/>
<path d="M82.8937 28.0654V22.4634H81.3522V24.3701H80.4284V21.5288H86.4816V24.3701H85.5578V22.4634H84.0217V28.0654H84.9938V29H81.9377V28.0654H82.8937ZM88.8707 28.0654V22.4634H87.8448V21.5288H90.8795C91.5133 21.5288 92.0164 21.5789 92.3888 21.6792C92.7612 21.7759 93.0691 21.9836 93.3126 22.3022C93.5561 22.6174 93.6778 23.0112 93.6778 23.4839C93.6778 24.4722 93.164 25.0934 92.1363 25.3477L93.4576 28.0654H94.3707V29H92.754L91.0514 25.5088H89.9986V28.0654H90.9547V29H87.8448V28.0654H88.8707ZM89.9986 24.5742H90.8795C91.3056 24.5742 91.6189 24.5474 91.8194 24.4937C92.0235 24.4364 92.19 24.3236 92.3189 24.1553C92.4479 23.9834 92.5123 23.7542 92.5123 23.4678C92.5123 23.2243 92.4461 23.0184 92.3136 22.8501C92.1847 22.6818 92.0235 22.5762 91.8302 22.5332C91.6404 22.4867 91.3486 22.4634 90.9547 22.4634H89.9986V24.5742ZM100.665 26.3735H97.979L97.4043 28.0654H98.312V29H95.3687V28.0654H96.271L98.312 22.3721H97.4043V21.5288H101.223V22.3721H100.294L102.383 28.0654H103.221V29H100.294V28.0654H101.223L100.665 26.3735ZM100.385 25.498L99.3916 22.3721H99.2895L98.2583 25.498H100.385ZM105.39 28.0654V22.4634H104.579V21.5288H107.329V22.4634H106.518V28.0654H107.329V29H104.579V28.0654H105.39ZM109.906 28.0654V22.4634H108.837V21.5288H111.388L114.665 27.335V22.4634H113.607V21.5288H116.674V22.4634H115.573V29.0752H114.412L110.83 22.6997V28.0654H111.899V29H108.837V28.0654H109.906Z" fill="white"/>
<path d="M115.268 70.9626C112.868 68.4293 109.668 66.696 106.335 66.0293C104.868 65.6293 103.402 65.3626 101.935 65.2293C105.668 60.8293 105.002 54.1626 100.602 50.4293C96.2018 46.696 89.5351 47.3626 85.8018 51.7626C82.0685 56.1626 82.7351 62.8293 87.1351 66.5626C87.9351 67.2293 88.7351 67.7626 89.5351 68.0293V70.9626L87.4018 68.9626C85.5351 67.096 82.4685 67.096 80.4685 68.9626C78.6018 70.8293 78.4685 73.7626 80.3351 75.6293L86.4685 82.8293C86.7351 84.696 87.4018 86.4293 88.3351 88.0293C89.0018 89.2293 89.9351 90.4293 90.8685 91.3626V93.896C90.8685 94.696 91.4018 95.2293 92.2018 95.2293H110.335C111.002 95.2293 111.668 94.5626 111.668 93.896V90.4293C114.202 87.3626 115.535 83.496 115.535 79.6293V71.896C115.668 71.3626 115.535 71.096 115.268 70.9626V70.9626ZM85.9351 58.4293C85.9351 54.0293 89.5351 50.5626 93.9351 50.696C98.3351 50.696 101.802 54.296 101.668 58.696C101.668 61.096 100.602 63.2293 98.7351 64.696V58.0293C98.667 56.8738 98.1595 55.7881 97.3166 54.9948C96.4737 54.2015 95.3593 53.7606 94.2018 53.7626C91.8018 53.6293 89.6685 55.6293 89.6685 58.0293V64.9626C87.4018 63.6293 86.0685 61.096 85.9351 58.4293ZM113.002 79.496C113.135 82.9626 111.935 86.296 109.668 88.9626C109.402 89.2293 109.135 89.496 109.135 89.896V92.696H93.6685V90.8293C93.6685 90.4293 93.4018 90.0293 93.1351 89.7626C92.2018 88.9626 91.4018 88.0293 90.7351 86.8293C89.9351 85.496 89.4018 83.896 89.1351 82.296C89.1351 82.0293 89.0018 81.7626 88.8685 81.496L82.4685 73.896C82.0685 73.496 81.8018 72.9626 81.8018 72.296C81.8018 71.7626 82.0685 71.096 82.4685 70.696C83.4018 69.896 84.7351 69.896 85.6685 70.696L89.5351 74.5626V78.5626L92.0685 77.2293V58.0293C92.2018 57.096 93.0018 56.296 94.0685 56.4293C95.0018 56.4293 95.9351 57.096 95.9351 58.0293V73.3626L98.6018 73.896V67.7626C98.7351 67.6293 98.8685 67.6293 99.0018 67.496C99.9351 67.496 100.868 67.6293 101.802 67.7626V74.5626L103.935 74.9626V68.0293L105.535 68.4293C106.202 68.5626 106.868 68.8293 107.535 69.096V75.7626L109.668 76.1626V70.0293C110.868 70.5626 111.935 71.3626 112.868 72.296L113.002 79.496V79.496Z" fill="black"/>
</svg>
