<svg width="195" height="100" viewBox="0 0 195 100" fill="none" xmlns="http://www.w3.org/2000/svg">
<circle cx="179" cy="22" r="15" fill="black"/>
<line x1="191" y1="22" x2="5" y2="22" stroke="black" stroke-width="6" stroke-linecap="round" stroke-linejoin="round"/>
<path d="M194.162 58.3619C194.167 57.6581 193.992 56.9649 193.654 56.3474C193.316 55.73 192.827 55.2087 192.232 54.8326C191.637 54.4565 190.956 54.238 190.254 54.1976C189.551 54.1572 188.85 54.2964 188.216 54.6019C188.174 53.8931 187.955 53.2062 187.58 52.6036C187.204 52.0011 186.684 51.502 186.066 51.1521C185.449 50.8021 184.753 50.6124 184.043 50.6001C183.334 50.5879 182.632 50.7535 182.002 51.0819C181.931 50.0627 181.507 49.1003 180.802 48.3606C180.097 47.621 179.157 47.1505 178.142 47.0304C177.128 46.9103 176.103 47.1481 175.245 47.7027C174.387 48.2574 173.749 49.0941 173.442 50.0685C172.774 49.6675 172.009 49.4555 171.229 49.4552C170.655 49.4569 170.088 49.5719 169.559 49.7934C169.029 50.015 168.549 50.3388 168.145 50.7463C167.742 51.1539 167.422 51.6371 167.205 52.1682C166.989 52.6994 166.879 53.2682 166.882 53.8419V70.7219C165.176 68.5885 163.509 66.4819 163.256 66.1219C162.87 65.5096 162.335 65.0058 161.7 64.6581C161.066 64.3105 160.353 64.1305 159.629 64.1352C159.015 64.1166 158.404 64.2241 157.834 64.4509C157.263 64.6776 156.745 65.019 156.311 65.4538C155.878 65.8886 155.538 66.4076 155.313 66.9789C155.088 67.5502 154.982 68.1615 155.002 68.7752C155.122 71.1752 159.762 79.6552 162.882 84.2685C167.602 91.2552 172.109 92.2685 172.309 92.2685H186.336C186.601 92.2656 186.859 92.1768 187.069 92.0152C189.463 89.8087 191.195 86.9783 192.069 83.8419C193.402 79.7219 194.109 73.8019 194.176 65.7619L194.162 58.3619ZM189.789 83.0952C189.04 85.6329 187.697 87.9551 185.869 89.8685H172.656C172.029 89.6819 168.562 88.4019 164.829 82.8685C161.096 77.3352 157.469 69.9619 157.402 68.6552C157.392 68.3761 157.44 68.0978 157.543 67.8383C157.646 67.5788 157.803 67.3438 158.002 67.1485C158.199 66.9461 158.436 66.787 158.698 66.6813C158.959 66.5757 159.24 66.5259 159.522 66.5352C159.875 66.5147 160.226 66.5923 160.536 66.7595C160.847 66.9266 161.105 67.1767 161.282 67.4819C161.669 68.0552 164.429 71.4819 166.042 73.5219L169.282 71.3352V53.8419C169.26 53.57 169.294 53.2964 169.383 53.0384C169.472 52.7804 169.613 52.5436 169.798 52.343C169.982 52.1423 170.207 51.9821 170.457 51.8726C170.706 51.763 170.976 51.7065 171.249 51.7065C171.522 51.7065 171.792 51.763 172.042 51.8726C172.291 51.9821 172.516 52.1423 172.701 52.343C172.885 52.5436 173.027 52.7804 173.115 53.0384C173.204 53.2964 173.238 53.57 173.216 53.8419V68.6952H175.616V51.3619C175.673 50.8712 175.908 50.4186 176.276 50.09C176.645 49.7614 177.122 49.5798 177.616 49.5798C178.11 49.5798 178.586 49.7614 178.955 50.09C179.324 50.4186 179.559 50.8712 179.616 51.3619V68.8685H182.016V54.9352C181.994 54.6723 182.027 54.4077 182.112 54.1581C182.197 53.9085 182.334 53.6794 182.512 53.4852C182.691 53.291 182.908 53.136 183.149 53.03C183.391 52.924 183.652 52.8692 183.916 52.8692C184.18 52.8692 184.441 52.924 184.682 53.03C184.924 53.136 185.141 53.291 185.319 53.4852C185.498 53.6794 185.634 53.9085 185.72 54.1581C185.805 54.4077 185.838 54.6723 185.816 54.9352V70.1885H188.216V58.3219C188.254 57.8798 188.457 57.4682 188.784 57.1684C189.111 56.8685 189.539 56.7021 189.982 56.7021C190.426 56.7021 190.854 56.8685 191.181 57.1684C191.508 57.4682 191.711 57.8798 191.749 58.3219V65.7219C191.709 73.6019 191.069 79.2152 189.789 83.0952V83.0952Z" fill="black"/>
</svg>
