<svg width="195" height="100" viewBox="0 0 195 100" fill="none" xmlns="http://www.w3.org/2000/svg">
<circle cx="98" cy="22" r="15" fill="black"/>
<line x1="191" y1="22" x2="5" y2="22" stroke="black" stroke-width="6" stroke-linecap="round" stroke-linejoin="round"/>
<path d="M118.162 58.3619C118.167 57.6581 117.992 56.9649 117.654 56.3474C117.316 55.73 116.827 55.2087 116.232 54.8326C115.637 54.4565 114.956 54.238 114.254 54.1976C113.551 54.1572 112.85 54.2964 112.216 54.6019C112.174 53.8931 111.955 53.2062 111.58 52.6036C111.204 52.0011 110.684 51.502 110.066 51.1521C109.449 50.8021 108.753 50.6124 108.043 50.6001C107.334 50.5879 106.632 50.7535 106.002 51.0819C105.931 50.0627 105.507 49.1003 104.802 48.3606C104.097 47.621 103.157 47.1505 102.142 47.0304C101.128 46.9103 100.103 47.1481 99.2449 47.7027C98.3869 48.2574 97.7495 49.0941 97.4425 50.0685C96.7738 49.6675 96.0088 49.4555 95.2291 49.4552C94.6554 49.4569 94.0877 49.5719 93.5585 49.7934C93.0294 50.015 92.5491 50.3388 92.1453 50.7463C91.7415 51.1539 91.4221 51.6371 91.2054 52.1682C90.9887 52.6994 90.879 53.2682 90.8825 53.8419V70.7219C89.1758 68.5885 87.5091 66.4819 87.2558 66.1219C86.8702 65.5096 86.3348 65.0058 85.7001 64.6581C85.0655 64.3105 84.3527 64.1305 83.6291 64.1352C83.0154 64.1166 82.4043 64.2241 81.8337 64.4509C81.2631 64.6776 80.7451 65.019 80.3115 65.4538C79.8779 65.8886 79.5381 66.4076 79.313 66.9789C79.0878 67.5502 78.9821 68.1615 79.0025 68.7752C79.1225 71.1752 83.7625 79.6552 86.8825 84.2685C91.6025 91.2552 96.1091 92.2685 96.3091 92.2685H110.336C110.601 92.2656 110.859 92.1768 111.069 92.0152C113.463 89.8087 115.195 86.9783 116.069 83.8419C117.402 79.7219 118.109 73.8019 118.176 65.7619L118.162 58.3619ZM113.789 83.0952C113.04 85.6329 111.697 87.9551 109.869 89.8685H96.6558C96.0291 89.6819 92.5625 88.4019 88.8291 82.8685C85.0958 77.3352 81.4691 69.9619 81.4025 68.6552C81.3917 68.3761 81.4396 68.0978 81.5429 67.8383C81.6462 67.5788 81.8028 67.3438 82.0025 67.1485C82.1991 66.9461 82.4359 66.787 82.6977 66.6813C82.9594 66.5757 83.2404 66.5259 83.5225 66.5352C83.8747 66.5147 84.2257 66.5923 84.5364 66.7595C84.8472 66.9266 85.1054 67.1767 85.2825 67.4819C85.6691 68.0552 88.4291 71.4819 90.0425 73.5219L93.2825 71.3352V53.8419C93.2601 53.57 93.2943 53.2964 93.3829 53.0384C93.4716 52.7804 93.6128 52.5436 93.7976 52.343C93.9824 52.1423 94.2068 51.9821 94.4567 51.8726C94.7065 51.763 94.9763 51.7065 95.2491 51.7065C95.5219 51.7065 95.7918 51.763 96.0416 51.8726C96.2914 51.9821 96.5158 52.1423 96.7007 52.343C96.8855 52.5436 97.0267 52.7804 97.1153 53.0384C97.204 53.2964 97.2382 53.57 97.2158 53.8419V68.6952H99.6158V51.3619C99.6725 50.8712 99.9077 50.4186 100.276 50.09C100.645 49.7614 101.122 49.5798 101.616 49.5798C102.11 49.5798 102.586 49.7614 102.955 50.09C103.324 50.4186 103.559 50.8712 103.616 51.3619V68.8685H106.016V54.9352C105.994 54.6723 106.027 54.4077 106.112 54.1581C106.197 53.9085 106.334 53.6794 106.512 53.4852C106.691 53.291 106.908 53.136 107.149 53.03C107.391 52.924 107.652 52.8692 107.916 52.8692C108.18 52.8692 108.441 52.924 108.682 53.03C108.924 53.136 109.141 53.291 109.319 53.4852C109.498 53.6794 109.634 53.9085 109.72 54.1581C109.805 54.4077 109.838 54.6723 109.816 54.9352V70.1885H112.216V58.3219C112.254 57.8798 112.457 57.4682 112.784 57.1684C113.111 56.8685 113.539 56.7021 113.982 56.7021C114.426 56.7021 114.854 56.8685 115.181 57.1684C115.508 57.4682 115.711 57.8798 115.749 58.3219V65.7219C115.709 73.6019 115.069 79.2152 113.789 83.0952V83.0952Z" fill="black"/>
</svg>
